%TF.GenerationSoftware,KiCad,Pcbnew,8.0.6*%
%TF.CreationDate,2024-12-04T23:44:22+08:00*%
%TF.ProjectId,f1oc,66316f63-2e6b-4696-9361-645f70636258,v0.1*%
%TF.SameCoordinates,Original*%
%TF.FileFunction,Copper,L2,Bot*%
%TF.FilePolarity,Positive*%
%FSLAX46Y46*%
G04 Gerber Fmt 4.6, Leading zero omitted, Abs format (unit mm)*
G04 Created by KiCad (PCBNEW 8.0.6) date 2024-12-04 23:44:22*
%MOMM*%
%LPD*%
G01*
G04 APERTURE LIST*
G04 Aperture macros list*
%AMRoundRect*
0 Rectangle with rounded corners*
0 $1 Rounding radius*
0 $2 $3 $4 $5 $6 $7 $8 $9 X,Y pos of 4 corners*
0 Add a 4 corners polygon primitive as box body*
4,1,4,$2,$3,$4,$5,$6,$7,$8,$9,$2,$3,0*
0 Add four circle primitives for the rounded corners*
1,1,$1+$1,$2,$3*
1,1,$1+$1,$4,$5*
1,1,$1+$1,$6,$7*
1,1,$1+$1,$8,$9*
0 Add four rect primitives between the rounded corners*
20,1,$1+$1,$2,$3,$4,$5,0*
20,1,$1+$1,$4,$5,$6,$7,0*
20,1,$1+$1,$6,$7,$8,$9,0*
20,1,$1+$1,$8,$9,$2,$3,0*%
G04 Aperture macros list end*
%TA.AperFunction,SMDPad,CuDef*%
%ADD10RoundRect,0.200000X-0.200000X-0.275000X0.200000X-0.275000X0.200000X0.275000X-0.200000X0.275000X0*%
%TD*%
%TA.AperFunction,SMDPad,CuDef*%
%ADD11RoundRect,0.150000X-0.150000X-0.700000X0.150000X-0.700000X0.150000X0.700000X-0.150000X0.700000X0*%
%TD*%
%TA.AperFunction,SMDPad,CuDef*%
%ADD12RoundRect,0.250000X-0.250000X-1.100000X0.250000X-1.100000X0.250000X1.100000X-0.250000X1.100000X0*%
%TD*%
%TA.AperFunction,SMDPad,CuDef*%
%ADD13RoundRect,0.225000X-0.250000X0.225000X-0.250000X-0.225000X0.250000X-0.225000X0.250000X0.225000X0*%
%TD*%
%TA.AperFunction,SMDPad,CuDef*%
%ADD14RoundRect,0.150000X0.700000X-0.150000X0.700000X0.150000X-0.700000X0.150000X-0.700000X-0.150000X0*%
%TD*%
%TA.AperFunction,SMDPad,CuDef*%
%ADD15RoundRect,0.250000X1.100000X-0.250000X1.100000X0.250000X-1.100000X0.250000X-1.100000X-0.250000X0*%
%TD*%
%TA.AperFunction,SMDPad,CuDef*%
%ADD16RoundRect,0.150000X0.725000X0.150000X-0.725000X0.150000X-0.725000X-0.150000X0.725000X-0.150000X0*%
%TD*%
%TA.AperFunction,SMDPad,CuDef*%
%ADD17RoundRect,0.200000X0.200000X0.275000X-0.200000X0.275000X-0.200000X-0.275000X0.200000X-0.275000X0*%
%TD*%
%TA.AperFunction,SMDPad,CuDef*%
%ADD18R,3.500000X2.350000*%
%TD*%
%TA.AperFunction,ViaPad*%
%ADD19C,0.406400*%
%TD*%
%TA.AperFunction,ViaPad*%
%ADD20C,0.381000*%
%TD*%
%TA.AperFunction,ViaPad*%
%ADD21C,0.762000*%
%TD*%
%TA.AperFunction,ViaPad*%
%ADD22C,0.304800*%
%TD*%
%TA.AperFunction,Conductor*%
%ADD23C,0.152400*%
%TD*%
%TA.AperFunction,Conductor*%
%ADD24C,0.254000*%
%TD*%
G04 APERTURE END LIST*
D10*
%TO.P,R15,1*%
%TO.N,/VOL_C*%
X121686800Y-70862425D03*
%TO.P,R15,2*%
%TO.N,/MOTOR_C*%
X123336800Y-70862425D03*
%TD*%
D11*
%TO.P,J3,1,Pin_1*%
%TO.N,+3.3V*%
X119125000Y-65000000D03*
%TO.P,J3,2,Pin_2*%
%TO.N,/SWD*%
X120375000Y-65000000D03*
%TO.P,J3,3,Pin_3*%
%TO.N,/SWCLK*%
X121625000Y-65000000D03*
%TO.P,J3,4,Pin_4*%
%TO.N,GND*%
X122875000Y-65000000D03*
D12*
%TO.P,J3,MP*%
%TO.N,N/C*%
X117275000Y-61800000D03*
X124725000Y-61800000D03*
%TD*%
D10*
%TO.P,R9,1*%
%TO.N,/VOL_A*%
X121686800Y-67567200D03*
%TO.P,R9,2*%
%TO.N,/MOTOR_A*%
X123336800Y-67567200D03*
%TD*%
D13*
%TO.P,C7,1*%
%TO.N,+3.3VA*%
X126250000Y-74200000D03*
%TO.P,C7,2*%
%TO.N,GND*%
X126250000Y-75750000D03*
%TD*%
D10*
%TO.P,R14,1*%
%TO.N,GND*%
X118575800Y-69214812D03*
%TO.P,R14,2*%
%TO.N,/VOL_B*%
X120225800Y-69214812D03*
%TD*%
%TO.P,R16,1*%
%TO.N,GND*%
X118575800Y-70862425D03*
%TO.P,R16,2*%
%TO.N,/VOL_C*%
X120225800Y-70862425D03*
%TD*%
D14*
%TO.P,J1,1,Pin_1*%
%TO.N,+3.3V*%
X109750000Y-77875000D03*
%TO.P,J1,2,Pin_2*%
%TO.N,/UART_RX*%
X109750000Y-76625000D03*
%TO.P,J1,3,Pin_3*%
%TO.N,/UART_TX*%
X109750000Y-75375000D03*
%TO.P,J1,4,Pin_4*%
%TO.N,GND*%
X109750000Y-74125000D03*
D15*
%TO.P,J1,MP*%
%TO.N,N/C*%
X106550000Y-79725000D03*
X106550000Y-72275000D03*
%TD*%
D10*
%TO.P,R13,1*%
%TO.N,/VOL_B*%
X121686800Y-69214812D03*
%TO.P,R13,2*%
%TO.N,/MOTOR_B*%
X123336800Y-69214812D03*
%TD*%
D16*
%TO.P,U4,1,VDD*%
%TO.N,+3.3VA*%
X123575000Y-74095000D03*
%TO.P,U4,2,MODE*%
X123575000Y-75365000D03*
%TO.P,U4,3,OUT*%
%TO.N,unconnected-(U4-OUT-Pad3)*%
X123575000Y-76635000D03*
%TO.P,U4,4,GND*%
%TO.N,GND*%
X123575000Y-77905000D03*
%TO.P,U4,5,PUSH*%
%TO.N,unconnected-(U4-PUSH-Pad5)*%
X118425000Y-77905000D03*
%TO.P,U4,6,A*%
%TO.N,/MISO*%
X118425000Y-76635000D03*
%TO.P,U4,7,B*%
%TO.N,/SCK*%
X118425000Y-75365000D03*
%TO.P,U4,8,Z*%
%TO.N,/CS*%
X118425000Y-74095000D03*
%TD*%
D17*
%TO.P,R3,1*%
%TO.N,Net-(U1-PB7)*%
X113723400Y-76812800D03*
%TO.P,R3,2*%
%TO.N,/UART_RX*%
X112073400Y-76812800D03*
%TD*%
%TO.P,R11,1*%
%TO.N,Net-(U1-PB6)*%
X113723400Y-75339600D03*
%TO.P,R11,2*%
%TO.N,/UART_TX*%
X112073400Y-75339600D03*
%TD*%
D10*
%TO.P,R12,1*%
%TO.N,GND*%
X118575800Y-67567200D03*
%TO.P,R12,2*%
%TO.N,/VOL_A*%
X120225800Y-67567200D03*
%TD*%
D18*
%TO.P,L1,1,1*%
%TO.N,/SW_BK*%
X132600000Y-72350000D03*
%TO.P,L1,2,2*%
%TO.N,+3.3V*%
X132600000Y-78400000D03*
%TD*%
D19*
%TO.N,GND*%
X134817600Y-81334000D03*
X110890800Y-71834400D03*
X110890800Y-86617200D03*
X116682000Y-85702800D03*
X116732800Y-84026400D03*
X107639600Y-69396000D03*
X129940800Y-72037600D03*
X121508000Y-61776000D03*
X130906000Y-86668000D03*
X124683000Y-86541000D03*
X109443000Y-80445000D03*
X126969000Y-66729000D03*
X125521200Y-69954800D03*
X122981200Y-79606800D03*
X116580400Y-88954000D03*
X108249200Y-74171200D03*
X120187200Y-61776000D03*
X124683000Y-84890000D03*
X128670800Y-65586000D03*
X127807200Y-73815600D03*
X119222000Y-88954000D03*
X123159000Y-82731000D03*
X120949200Y-72393200D03*
X120796800Y-82197600D03*
X134081000Y-75365000D03*
X113532400Y-86617200D03*
X116834400Y-66475000D03*
X107588800Y-83010400D03*
X124683000Y-87811000D03*
X120746000Y-86541000D03*
X128366000Y-86718800D03*
X127502400Y-70462800D03*
X111957600Y-79505200D03*
X120746000Y-84890000D03*
X112567200Y-81791200D03*
X120796800Y-79606800D03*
X116631200Y-87328400D03*
X126130800Y-77168400D03*
X124429000Y-88954000D03*
X122524000Y-68380000D03*
X135884400Y-72901200D03*
X113532400Y-73307600D03*
X121558800Y-74933200D03*
X125064000Y-65586000D03*
X113481600Y-63350800D03*
X116428000Y-69269000D03*
X121787400Y-88954000D03*
X126994400Y-88954000D03*
X130499600Y-81232400D03*
X134360400Y-69446800D03*
X115793000Y-78540000D03*
X127807200Y-77168400D03*
X135325600Y-78184400D03*
X110789200Y-65738400D03*
X132582400Y-83467600D03*
X106522000Y-76406400D03*
X127096000Y-63681000D03*
X130702800Y-74018800D03*
D20*
%TO.N,+3.3V*%
X114700800Y-65586000D03*
D21*
X132600000Y-78524999D03*
D20*
X116326400Y-64417600D03*
D22*
X119120400Y-64290600D03*
X112465600Y-77879600D03*
X106039400Y-77905000D03*
X119679200Y-81537200D03*
%TO.N,+3.3VA*%
X110535200Y-80305000D03*
X123575000Y-74095000D03*
%TO.N,/CS*%
X118095000Y-74095000D03*
%TO.N,/IN_HC*%
X122200000Y-77800000D03*
X120896934Y-76496934D03*
%TO.N,/SCK*%
X119120400Y-80267200D03*
X117200000Y-75400000D03*
%TO.N,/SWD*%
X118517471Y-66340218D03*
%TO.N,/MISO*%
X117000000Y-76600000D03*
%TO.N,/SWCLK*%
X118104400Y-66805200D03*
%TO.N,/IN_HB*%
X121200000Y-76000000D03*
X121995915Y-76795915D03*
D20*
%TO.N,/SW_BK*%
X130855200Y-76304800D03*
D22*
%TO.N,/CS_DRV*%
X119171200Y-81130800D03*
X117444000Y-81130800D03*
D20*
%TO.N,/MOTOR_B*%
X123387600Y-69192800D03*
%TO.N,/MOTOR_A*%
X123387600Y-67567200D03*
%TO.N,/MOTOR_C*%
X123387600Y-70818400D03*
D22*
%TO.N,/VOL_A*%
X112719600Y-78387600D03*
%TO.N,/VOL_B*%
X113176800Y-78743200D03*
%TO.N,/VOL_C*%
X113700000Y-78402800D03*
%TO.N,Net-(U1-PB7)*%
X113735600Y-76863600D03*
%TO.N,Net-(U1-PB6)*%
X113735600Y-75339600D03*
%TO.N,Net-(U2-NFAULT)*%
X124505200Y-73510800D03*
X124505200Y-72037600D03*
%TD*%
D23*
%TO.N,+3.3V*%
X106039400Y-77905000D02*
X106069400Y-77875000D01*
X115158000Y-65586000D02*
X116326400Y-64417600D01*
X119679200Y-79505200D02*
X120136400Y-79048000D01*
X114700800Y-65586000D02*
X115158000Y-65586000D01*
X119679200Y-81537200D02*
X119679200Y-79505200D01*
X120136400Y-79048000D02*
X132076999Y-79048000D01*
X112465600Y-77879600D02*
X112461000Y-77875000D01*
X132076999Y-79048000D02*
X132600000Y-78524999D01*
X112461000Y-77875000D02*
X109750000Y-77875000D01*
X106069400Y-77875000D02*
X109750000Y-77875000D01*
X132600000Y-78319200D02*
X132633200Y-78286000D01*
%TO.N,+3.3VA*%
X122940000Y-73460000D02*
X122320800Y-73460000D01*
X116021600Y-73866400D02*
X116021600Y-77066800D01*
X112783400Y-80305000D02*
X110535200Y-80305000D01*
X123680000Y-74200000D02*
X123575000Y-74095000D01*
X122320800Y-73460000D02*
X116428000Y-73460000D01*
X116428000Y-73460000D02*
X116021600Y-73866400D01*
X123575000Y-74095000D02*
X122940000Y-73460000D01*
X123575000Y-75365000D02*
X123575000Y-74095000D01*
X116021600Y-77066800D02*
X112783400Y-80305000D01*
X126250000Y-74200000D02*
X123680000Y-74200000D01*
X123575000Y-75365000D02*
X123514600Y-75365000D01*
%TO.N,/IN_HC*%
X122200000Y-77800000D02*
X120896934Y-76496934D01*
%TO.N,/SCK*%
X117200000Y-75400000D02*
X118390000Y-75400000D01*
X116597600Y-76002400D02*
X117200000Y-75400000D01*
X118390000Y-75400000D02*
X118425000Y-75365000D01*
X116597600Y-77744400D02*
X116597600Y-76002400D01*
X119120400Y-80267200D02*
X116597600Y-77744400D01*
%TO.N,/SWD*%
X120144182Y-66340218D02*
X118517471Y-66340218D01*
X120375000Y-65000000D02*
X120375000Y-66109400D01*
X120375000Y-66109400D02*
X120144182Y-66340218D01*
%TO.N,/MISO*%
X118390000Y-76600000D02*
X118425000Y-76635000D01*
X117000000Y-76600000D02*
X118390000Y-76600000D01*
%TO.N,/SWCLK*%
X121624999Y-66535801D02*
X121624999Y-65000000D01*
X118155200Y-66754400D02*
X121406400Y-66754400D01*
X118104400Y-66805200D02*
X118155200Y-66754400D01*
X121406400Y-66754400D02*
X121624999Y-66535801D01*
%TO.N,/IN_HB*%
X121995915Y-76795915D02*
X121200000Y-76000000D01*
D24*
%TO.N,/SW_BK*%
X130855200Y-76304800D02*
X131972800Y-76304800D01*
X131972800Y-76304800D02*
X132600000Y-75677600D01*
X132600000Y-75677600D02*
X132600000Y-72350000D01*
D23*
%TO.N,/CS_DRV*%
X117444000Y-81130800D02*
X119171200Y-81130800D01*
%TO.N,/UART_TX*%
X109750000Y-75375000D02*
X112038000Y-75375000D01*
X112038000Y-75375000D02*
X112073400Y-75339600D01*
%TO.N,/UART_RX*%
X109750000Y-76625000D02*
X111885600Y-76625000D01*
X111885600Y-76625000D02*
X112073400Y-76812800D01*
%TO.N,/VOL_A*%
X119413000Y-68380000D02*
X120225800Y-67567200D01*
X114073496Y-77695600D02*
X115005600Y-76763496D01*
X115005600Y-68837200D02*
X115462800Y-68380000D01*
X121686800Y-67567200D02*
X120225800Y-67567200D01*
X112719600Y-78387600D02*
X112719600Y-78383068D01*
X112719600Y-78383068D02*
X113407068Y-77695600D01*
X115005600Y-76763496D02*
X115005600Y-68837200D01*
X115462800Y-68380000D02*
X119413000Y-68380000D01*
X113407068Y-77695600D02*
X114073496Y-77695600D01*
%TO.N,/VOL_B*%
X115716800Y-70056400D02*
X119384212Y-70056400D01*
X119384212Y-70056400D02*
X120225800Y-69214812D01*
X113533320Y-78000400D02*
X114199748Y-78000400D01*
X114199748Y-78000400D02*
X115310400Y-76889748D01*
X113176800Y-78743200D02*
X113176800Y-78356920D01*
X120225800Y-69214812D02*
X121686800Y-69214812D01*
X115310400Y-76889748D02*
X115310400Y-70462800D01*
X113176800Y-78356920D02*
X113533320Y-78000400D01*
X115310400Y-70462800D02*
X115716800Y-70056400D01*
%TO.N,/VOL_C*%
X115666000Y-76965200D02*
X115666000Y-71936000D01*
X116035975Y-71566025D02*
X119522200Y-71566025D01*
X119522200Y-71566025D02*
X120225800Y-70862425D01*
X113700000Y-78402800D02*
X114228400Y-78402800D01*
X115666000Y-71936000D02*
X116035975Y-71566025D01*
X121686800Y-70862425D02*
X120225800Y-70862425D01*
X114228400Y-78402800D02*
X115666000Y-76965200D01*
%TO.N,Net-(U1-PB7)*%
X113723400Y-76851400D02*
X113723400Y-76812800D01*
X113735600Y-76863600D02*
X113723400Y-76851400D01*
%TO.N,Net-(U2-NFAULT)*%
X124505200Y-72037600D02*
X124505200Y-73510800D01*
%TD*%
%TA.AperFunction,Conductor*%
%TO.N,GND*%
G36*
X121800291Y-59672546D02*
G01*
X121803926Y-59672724D01*
X122600478Y-59731481D01*
X122604113Y-59731840D01*
X123396796Y-59829608D01*
X123400403Y-59830142D01*
X124187340Y-59966689D01*
X124190960Y-59967409D01*
X124970232Y-60142400D01*
X124973778Y-60143288D01*
X124995951Y-60149424D01*
X125037845Y-60179273D01*
X125050751Y-60229068D01*
X125028630Y-60275508D01*
X124981833Y-60296865D01*
X124975893Y-60297100D01*
X124443289Y-60297100D01*
X124348943Y-60312043D01*
X124235228Y-60369984D01*
X124144984Y-60460228D01*
X124087043Y-60573943D01*
X124072100Y-60668289D01*
X124072100Y-62931710D01*
X124087043Y-63026056D01*
X124136569Y-63123256D01*
X124144984Y-63139771D01*
X124235229Y-63230016D01*
X124348943Y-63287956D01*
X124348945Y-63287957D01*
X124443292Y-63302900D01*
X124443296Y-63302900D01*
X125006704Y-63302900D01*
X125006708Y-63302900D01*
X125101055Y-63287957D01*
X125214771Y-63230016D01*
X125305016Y-63139771D01*
X125362957Y-63026055D01*
X125377900Y-62931708D01*
X125377900Y-60668292D01*
X125362957Y-60573945D01*
X125305016Y-60460229D01*
X125214771Y-60369984D01*
X125191032Y-60357888D01*
X125155951Y-60320268D01*
X125153259Y-60268898D01*
X125184216Y-60227817D01*
X125234338Y-60216246D01*
X125245227Y-60218408D01*
X125743543Y-60356311D01*
X125747040Y-60357371D01*
X126505448Y-60607915D01*
X126508887Y-60609146D01*
X127254042Y-60896585D01*
X127257434Y-60897989D01*
X127987610Y-61221654D01*
X127990947Y-61223233D01*
X128704307Y-61582308D01*
X128707562Y-61584047D01*
X129402488Y-61977718D01*
X129405654Y-61979616D01*
X130080407Y-62406898D01*
X130083468Y-62408943D01*
X130736454Y-62868828D01*
X130739397Y-62871010D01*
X131292811Y-63302900D01*
X131369031Y-63362382D01*
X131371877Y-63364717D01*
X131711059Y-63657298D01*
X131976655Y-63886402D01*
X131979360Y-63888854D01*
X132409454Y-64298337D01*
X132557808Y-64439582D01*
X132560416Y-64442190D01*
X133111143Y-65020637D01*
X133113590Y-65023337D01*
X133466390Y-65432329D01*
X133635275Y-65628114D01*
X133637613Y-65630963D01*
X134108375Y-66234188D01*
X134128981Y-66260592D01*
X134131176Y-66263552D01*
X134294437Y-66495365D01*
X134591050Y-66916523D01*
X134593101Y-66919592D01*
X135020383Y-67594345D01*
X135022281Y-67597511D01*
X135415952Y-68292437D01*
X135417691Y-68295692D01*
X135776766Y-69009052D01*
X135778345Y-69012389D01*
X136102006Y-69742556D01*
X136103418Y-69745966D01*
X136390846Y-70491094D01*
X136392090Y-70494569D01*
X136642622Y-71252941D01*
X136643693Y-71256473D01*
X136856705Y-72026199D01*
X136857602Y-72029780D01*
X137032590Y-72809039D01*
X137033310Y-72812659D01*
X137169853Y-73599574D01*
X137170394Y-73603225D01*
X137268157Y-74395867D01*
X137268519Y-74399540D01*
X137327273Y-75196046D01*
X137327454Y-75199733D01*
X137347054Y-75998155D01*
X137347054Y-76001845D01*
X137327454Y-76800266D01*
X137327273Y-76803953D01*
X137268519Y-77600459D01*
X137268157Y-77604132D01*
X137170394Y-78396774D01*
X137169853Y-78400425D01*
X137033310Y-79187340D01*
X137032590Y-79190960D01*
X136857602Y-79970219D01*
X136856705Y-79973800D01*
X136643693Y-80743526D01*
X136642622Y-80747058D01*
X136392090Y-81505430D01*
X136390846Y-81508905D01*
X136103418Y-82254033D01*
X136102006Y-82257443D01*
X135778345Y-82987610D01*
X135776766Y-82990947D01*
X135417691Y-83704307D01*
X135415952Y-83707562D01*
X135022281Y-84402488D01*
X135020383Y-84405654D01*
X134593101Y-85080407D01*
X134591050Y-85083476D01*
X134131179Y-85736443D01*
X134128981Y-85739407D01*
X133637617Y-86369031D01*
X133635275Y-86371885D01*
X133113597Y-86976655D01*
X133111118Y-86979390D01*
X132560417Y-87557808D01*
X132557808Y-87560417D01*
X131979390Y-88111118D01*
X131976655Y-88113597D01*
X131371885Y-88635275D01*
X131369031Y-88637617D01*
X130739407Y-89128981D01*
X130736443Y-89131179D01*
X130083476Y-89591050D01*
X130080407Y-89593101D01*
X129405654Y-90020383D01*
X129402488Y-90022281D01*
X128707562Y-90415952D01*
X128704307Y-90417691D01*
X127990947Y-90776766D01*
X127987610Y-90778345D01*
X127257443Y-91102006D01*
X127254033Y-91103418D01*
X126508905Y-91390846D01*
X126505430Y-91392090D01*
X125747058Y-91642622D01*
X125743526Y-91643693D01*
X124973800Y-91856705D01*
X124970219Y-91857602D01*
X124190960Y-92032590D01*
X124187340Y-92033310D01*
X123400425Y-92169853D01*
X123396774Y-92170394D01*
X122604132Y-92268157D01*
X122600459Y-92268519D01*
X121803953Y-92327273D01*
X121800266Y-92327454D01*
X121001845Y-92347054D01*
X120998155Y-92347054D01*
X120199733Y-92327454D01*
X120196046Y-92327273D01*
X119399540Y-92268519D01*
X119395867Y-92268157D01*
X118603225Y-92170394D01*
X118599574Y-92169853D01*
X117812659Y-92033310D01*
X117809039Y-92032590D01*
X117029780Y-91857602D01*
X117026199Y-91856705D01*
X116256473Y-91643693D01*
X116252941Y-91642622D01*
X115494569Y-91392090D01*
X115491094Y-91390846D01*
X114745966Y-91103418D01*
X114742556Y-91102006D01*
X114012389Y-90778345D01*
X114009052Y-90776766D01*
X113295692Y-90417691D01*
X113292437Y-90415952D01*
X112597511Y-90022281D01*
X112594345Y-90020383D01*
X111919592Y-89593101D01*
X111916523Y-89591050D01*
X111263556Y-89131179D01*
X111260592Y-89128981D01*
X110630968Y-88637617D01*
X110628114Y-88635275D01*
X110023337Y-88113590D01*
X110020637Y-88111143D01*
X109442190Y-87560416D01*
X109439582Y-87557808D01*
X108888854Y-86979360D01*
X108886402Y-86976655D01*
X108364724Y-86371885D01*
X108362382Y-86369031D01*
X108014381Y-85923110D01*
X107871010Y-85739397D01*
X107868820Y-85736443D01*
X107529498Y-85254643D01*
X107408943Y-85083468D01*
X107406898Y-85080407D01*
X107383933Y-85044142D01*
X106979615Y-84405653D01*
X106977718Y-84402488D01*
X106724191Y-83954951D01*
X111787363Y-83954951D01*
X111806469Y-84173341D01*
X111863211Y-84385104D01*
X111863212Y-84385108D01*
X111955857Y-84583788D01*
X112081601Y-84763370D01*
X112081612Y-84763383D01*
X112236616Y-84918387D01*
X112236629Y-84918398D01*
X112326232Y-84981138D01*
X112416206Y-85044139D01*
X112416208Y-85044139D01*
X112416211Y-85044142D01*
X112581555Y-85121242D01*
X112614895Y-85136789D01*
X112826654Y-85193530D01*
X113045049Y-85212637D01*
X113263444Y-85193530D01*
X113475203Y-85136789D01*
X113673892Y-85044139D01*
X113853474Y-84918394D01*
X114008492Y-84763376D01*
X114134237Y-84583794D01*
X114226887Y-84385105D01*
X114283628Y-84173346D01*
X114302735Y-83954951D01*
X127697266Y-83954951D01*
X127716372Y-84173341D01*
X127773114Y-84385104D01*
X127773115Y-84385108D01*
X127865760Y-84583788D01*
X127865763Y-84583793D01*
X127865764Y-84583794D01*
X127894373Y-84624652D01*
X127991510Y-84763378D01*
X128146523Y-84918391D01*
X128146526Y-84918393D01*
X128146527Y-84918394D01*
X128326108Y-85044138D01*
X128326110Y-85044138D01*
X128326113Y-85044141D01*
X128491457Y-85121241D01*
X128524797Y-85136788D01*
X128736556Y-85193529D01*
X128954951Y-85212636D01*
X129173346Y-85193529D01*
X129385105Y-85136788D01*
X129533784Y-85067457D01*
X129583788Y-85044141D01*
X129583788Y-85044140D01*
X129583794Y-85044138D01*
X129763375Y-84918394D01*
X129918394Y-84763375D01*
X130044138Y-84583794D01*
X130136788Y-84385105D01*
X130193529Y-84173346D01*
X130212636Y-83954951D01*
X130193529Y-83736556D01*
X130136788Y-83524797D01*
X130044140Y-83326113D01*
X130044140Y-83326112D01*
X130044137Y-83326108D01*
X129933055Y-83167466D01*
X129918394Y-83146527D01*
X129918393Y-83146526D01*
X129918391Y-83146523D01*
X129763378Y-82991510D01*
X129583788Y-82865760D01*
X129385108Y-82773115D01*
X129385106Y-82773114D01*
X129385105Y-82773114D01*
X129173346Y-82716373D01*
X129173344Y-82716372D01*
X129173341Y-82716372D01*
X128954951Y-82697266D01*
X128736560Y-82716372D01*
X128524797Y-82773114D01*
X128524793Y-82773115D01*
X128326112Y-82865761D01*
X128326108Y-82865764D01*
X128146523Y-82991510D01*
X127991510Y-83146523D01*
X127865764Y-83326108D01*
X127865761Y-83326112D01*
X127773115Y-83524793D01*
X127773114Y-83524797D01*
X127716372Y-83736560D01*
X127697266Y-83954951D01*
X114302735Y-83954951D01*
X114283628Y-83736556D01*
X114226887Y-83524797D01*
X114211340Y-83491457D01*
X114134240Y-83326113D01*
X114134237Y-83326109D01*
X114134237Y-83326108D01*
X114023155Y-83167467D01*
X114008496Y-83146531D01*
X114008485Y-83146518D01*
X113853481Y-82991514D01*
X113853468Y-82991503D01*
X113673886Y-82865759D01*
X113475206Y-82773114D01*
X113475204Y-82773113D01*
X113475203Y-82773113D01*
X113263444Y-82716372D01*
X113263442Y-82716371D01*
X113263439Y-82716371D01*
X113045049Y-82697265D01*
X112826658Y-82716371D01*
X112826654Y-82716371D01*
X112826654Y-82716372D01*
X112614895Y-82773113D01*
X112614891Y-82773114D01*
X112416211Y-82865759D01*
X112236629Y-82991503D01*
X112236616Y-82991514D01*
X112081612Y-83146518D01*
X112081601Y-83146531D01*
X111955857Y-83326113D01*
X111863212Y-83524793D01*
X111863211Y-83524797D01*
X111806469Y-83736560D01*
X111787363Y-83954951D01*
X106724191Y-83954951D01*
X106584047Y-83707562D01*
X106582308Y-83704307D01*
X106223233Y-82990947D01*
X106221654Y-82987610D01*
X106126575Y-82773115D01*
X105897989Y-82257434D01*
X105896581Y-82254033D01*
X105723631Y-81805677D01*
X105609146Y-81508887D01*
X105607915Y-81505448D01*
X105357375Y-80747051D01*
X105356306Y-80743525D01*
X105278806Y-80463478D01*
X105282870Y-80412201D01*
X105318944Y-80375531D01*
X105363043Y-80369149D01*
X105418292Y-80377900D01*
X105418296Y-80377900D01*
X107681704Y-80377900D01*
X107681708Y-80377900D01*
X107776055Y-80362957D01*
X107889771Y-80305016D01*
X107980016Y-80214771D01*
X108037957Y-80101055D01*
X108052900Y-80006708D01*
X108052900Y-79443292D01*
X108037957Y-79348945D01*
X107980016Y-79235229D01*
X107889771Y-79144984D01*
X107776055Y-79087043D01*
X107776057Y-79087043D01*
X107681710Y-79072100D01*
X107681708Y-79072100D01*
X105418292Y-79072100D01*
X105418289Y-79072100D01*
X105323943Y-79087043D01*
X105210228Y-79144984D01*
X105119983Y-79235229D01*
X105115663Y-79243709D01*
X105078041Y-79278790D01*
X105026672Y-79281480D01*
X104985591Y-79250522D01*
X104975287Y-79226043D01*
X104967409Y-79190960D01*
X104966689Y-79187340D01*
X104908021Y-78849230D01*
X104830142Y-78400403D01*
X104829608Y-78396796D01*
X104768951Y-77905000D01*
X105729390Y-77905000D01*
X105748086Y-78011031D01*
X105801919Y-78104271D01*
X105884393Y-78173476D01*
X105884394Y-78173476D01*
X105884395Y-78173477D01*
X105985567Y-78210300D01*
X106093233Y-78210300D01*
X106194405Y-78173477D01*
X106256117Y-78121694D01*
X106304454Y-78104100D01*
X108704813Y-78104100D01*
X108753151Y-78121693D01*
X108773604Y-78148923D01*
X108789490Y-78184900D01*
X108795780Y-78199145D01*
X108795782Y-78199148D01*
X108875851Y-78279217D01*
X108875854Y-78279219D01*
X108875855Y-78279220D01*
X108979450Y-78324962D01*
X109004774Y-78327900D01*
X109004776Y-78327900D01*
X110495224Y-78327900D01*
X110495226Y-78327900D01*
X110520550Y-78324962D01*
X110624145Y-78279220D01*
X110704220Y-78199145D01*
X110726395Y-78148923D01*
X110762013Y-78111813D01*
X110795187Y-78104100D01*
X112230815Y-78104100D01*
X112279151Y-78121692D01*
X112310595Y-78148077D01*
X112310598Y-78148078D01*
X112310597Y-78148078D01*
X112328533Y-78154605D01*
X112387323Y-78176003D01*
X112426727Y-78209066D01*
X112435661Y-78259724D01*
X112430028Y-78275202D01*
X112430536Y-78275387D01*
X112428287Y-78281565D01*
X112409590Y-78387600D01*
X112428286Y-78493631D01*
X112482119Y-78586871D01*
X112564593Y-78656076D01*
X112564594Y-78656076D01*
X112564595Y-78656077D01*
X112665767Y-78692900D01*
X112773435Y-78692900D01*
X112779911Y-78691758D01*
X112780423Y-78694663D01*
X112820004Y-78694637D01*
X112859431Y-78727677D01*
X112868387Y-78752259D01*
X112879937Y-78817758D01*
X112885486Y-78849230D01*
X112939319Y-78942471D01*
X113021793Y-79011676D01*
X113021794Y-79011676D01*
X113021795Y-79011677D01*
X113122967Y-79048500D01*
X113230633Y-79048500D01*
X113331805Y-79011677D01*
X113414281Y-78942471D01*
X113468114Y-78849230D01*
X113486674Y-78743969D01*
X113512393Y-78699424D01*
X113560731Y-78681830D01*
X113586448Y-78686364D01*
X113646167Y-78708100D01*
X113646168Y-78708100D01*
X113753833Y-78708100D01*
X113855005Y-78671277D01*
X113880966Y-78649492D01*
X113929303Y-78631900D01*
X113950955Y-78631900D01*
X113999293Y-78649493D01*
X114025013Y-78694042D01*
X114016080Y-78744700D01*
X114004129Y-78760274D01*
X112710529Y-80053874D01*
X112663909Y-80075614D01*
X112657355Y-80075900D01*
X110764503Y-80075900D01*
X110716166Y-80058307D01*
X110690205Y-80036523D01*
X110690202Y-80036521D01*
X110589033Y-79999700D01*
X110481367Y-79999700D01*
X110380193Y-80036523D01*
X110297719Y-80105728D01*
X110243886Y-80198968D01*
X110225190Y-80305000D01*
X110243886Y-80411031D01*
X110297719Y-80504271D01*
X110380193Y-80573476D01*
X110380194Y-80573476D01*
X110380195Y-80573477D01*
X110481367Y-80610300D01*
X110589033Y-80610300D01*
X110690202Y-80573478D01*
X110690201Y-80573478D01*
X110690205Y-80573477D01*
X110716166Y-80551692D01*
X110764503Y-80534100D01*
X112828970Y-80534100D01*
X112828971Y-80534100D01*
X112853631Y-80523884D01*
X112853634Y-80523884D01*
X112883404Y-80511553D01*
X112913175Y-80499222D01*
X116215821Y-77196575D01*
X116218591Y-77189888D01*
X116223825Y-77177251D01*
X116258576Y-77139328D01*
X116309576Y-77132614D01*
X116352960Y-77160252D01*
X116368500Y-77206031D01*
X116368500Y-77789970D01*
X116403378Y-77874176D01*
X118796617Y-80267414D01*
X118817500Y-80307529D01*
X118829085Y-80373229D01*
X118882919Y-80466471D01*
X118965393Y-80535676D01*
X118965394Y-80535676D01*
X118965395Y-80535677D01*
X119066567Y-80572500D01*
X119174233Y-80572500D01*
X119275405Y-80535677D01*
X119326562Y-80492751D01*
X119374899Y-80475157D01*
X119423237Y-80492750D01*
X119448957Y-80537298D01*
X119450100Y-80550357D01*
X119450100Y-80805015D01*
X119432507Y-80853353D01*
X119387958Y-80879073D01*
X119337300Y-80870140D01*
X119326566Y-80862625D01*
X119326206Y-80862323D01*
X119225033Y-80825500D01*
X119117367Y-80825500D01*
X119016197Y-80862321D01*
X119016195Y-80862323D01*
X118990233Y-80884107D01*
X118941897Y-80901700D01*
X117673303Y-80901700D01*
X117624966Y-80884107D01*
X117599005Y-80862323D01*
X117599002Y-80862321D01*
X117497833Y-80825500D01*
X117390167Y-80825500D01*
X117288993Y-80862323D01*
X117206519Y-80931528D01*
X117152686Y-81024768D01*
X117133990Y-81130800D01*
X117152686Y-81236831D01*
X117206519Y-81330071D01*
X117288993Y-81399276D01*
X117288994Y-81399276D01*
X117288995Y-81399277D01*
X117390167Y-81436100D01*
X117497833Y-81436100D01*
X117599002Y-81399278D01*
X117599001Y-81399278D01*
X117599005Y-81399277D01*
X117624966Y-81377492D01*
X117673303Y-81359900D01*
X118941897Y-81359900D01*
X118990233Y-81377492D01*
X119016195Y-81399277D01*
X119016198Y-81399278D01*
X119016197Y-81399278D01*
X119117367Y-81436100D01*
X119225032Y-81436100D01*
X119225033Y-81436100D01*
X119275733Y-81417647D01*
X119327170Y-81417647D01*
X119366575Y-81450712D01*
X119375508Y-81501370D01*
X119369190Y-81537199D01*
X119387886Y-81643231D01*
X119441719Y-81736471D01*
X119524193Y-81805676D01*
X119524194Y-81805676D01*
X119524195Y-81805677D01*
X119625367Y-81842500D01*
X119733033Y-81842500D01*
X119834205Y-81805677D01*
X119916681Y-81736471D01*
X119970514Y-81643230D01*
X119989210Y-81537200D01*
X119970514Y-81431170D01*
X119970513Y-81431168D01*
X119918375Y-81340862D01*
X119908300Y-81303262D01*
X119908300Y-79631244D01*
X119925893Y-79582906D01*
X119930326Y-79578070D01*
X120209270Y-79299126D01*
X120255890Y-79277386D01*
X120262444Y-79277100D01*
X130621901Y-79277100D01*
X130670239Y-79294693D01*
X130695959Y-79339242D01*
X130697101Y-79352300D01*
X130697101Y-79590057D01*
X130705972Y-79634659D01*
X130739764Y-79685232D01*
X130739765Y-79685232D01*
X130739766Y-79685234D01*
X130790342Y-79719028D01*
X130834943Y-79727900D01*
X134365056Y-79727899D01*
X134409658Y-79719028D01*
X134460234Y-79685234D01*
X134494028Y-79634658D01*
X134502900Y-79590057D01*
X134502899Y-77209944D01*
X134494028Y-77165342D01*
X134464601Y-77121302D01*
X134460235Y-77114767D01*
X134460231Y-77114764D01*
X134409658Y-77080972D01*
X134409656Y-77080971D01*
X134365057Y-77072100D01*
X130834944Y-77072100D01*
X130834942Y-77072101D01*
X130790340Y-77080972D01*
X130739767Y-77114764D01*
X130705972Y-77165342D01*
X130705971Y-77165343D01*
X130699759Y-77196575D01*
X130697100Y-77209943D01*
X130697100Y-78011031D01*
X130697101Y-78743700D01*
X130679508Y-78792038D01*
X130634959Y-78817758D01*
X130621901Y-78818900D01*
X120090829Y-78818900D01*
X120017607Y-78849230D01*
X120006623Y-78853779D01*
X120006622Y-78853780D01*
X119484979Y-79375422D01*
X119460315Y-79434964D01*
X119460315Y-79434966D01*
X119456868Y-79443289D01*
X119450100Y-79459630D01*
X119450100Y-79984042D01*
X119432507Y-80032380D01*
X119387958Y-80058100D01*
X119337300Y-80049167D01*
X119326562Y-80041648D01*
X119275406Y-79998723D01*
X119174233Y-79961900D01*
X119170245Y-79961900D01*
X119121907Y-79944307D01*
X119117071Y-79939874D01*
X117663471Y-78486274D01*
X117641731Y-78439654D01*
X117655045Y-78389967D01*
X117697182Y-78360462D01*
X117716645Y-78357900D01*
X119195224Y-78357900D01*
X119195226Y-78357900D01*
X119220550Y-78354962D01*
X119324145Y-78309220D01*
X119404220Y-78229145D01*
X119449962Y-78125550D01*
X119452900Y-78100226D01*
X119452900Y-77709774D01*
X119449962Y-77684450D01*
X119404220Y-77580855D01*
X119404219Y-77580854D01*
X119404217Y-77580851D01*
X119324148Y-77500782D01*
X119324145Y-77500780D01*
X119220548Y-77455037D01*
X119201100Y-77452781D01*
X119195226Y-77452100D01*
X117654774Y-77452100D01*
X117649510Y-77452710D01*
X117629451Y-77455037D01*
X117525854Y-77500780D01*
X117525851Y-77500782D01*
X117445782Y-77580851D01*
X117445780Y-77580854D01*
X117400037Y-77684451D01*
X117397100Y-77709776D01*
X117397100Y-78038355D01*
X117379507Y-78086693D01*
X117334958Y-78112413D01*
X117284300Y-78103480D01*
X117268726Y-78091529D01*
X116848726Y-77671529D01*
X116826986Y-77624909D01*
X116826700Y-77618355D01*
X116826700Y-76969214D01*
X116844293Y-76920876D01*
X116888842Y-76895156D01*
X116927617Y-76898548D01*
X116946167Y-76905300D01*
X116946168Y-76905300D01*
X117053833Y-76905300D01*
X117071348Y-76898925D01*
X117155005Y-76868477D01*
X117180966Y-76846692D01*
X117229303Y-76829100D01*
X117339359Y-76829100D01*
X117387697Y-76846693D01*
X117408150Y-76873923D01*
X117432602Y-76929300D01*
X117445780Y-76959145D01*
X117445782Y-76959148D01*
X117525851Y-77039217D01*
X117525854Y-77039219D01*
X117525855Y-77039220D01*
X117629450Y-77084962D01*
X117654774Y-77087900D01*
X117654776Y-77087900D01*
X119195224Y-77087900D01*
X119195226Y-77087900D01*
X119220550Y-77084962D01*
X119324145Y-77039220D01*
X119404220Y-76959145D01*
X119449962Y-76855550D01*
X119452900Y-76830226D01*
X119452900Y-76496934D01*
X120586924Y-76496934D01*
X120605620Y-76602965D01*
X120659453Y-76696205D01*
X120741927Y-76765410D01*
X120741928Y-76765410D01*
X120741929Y-76765411D01*
X120843101Y-76802234D01*
X120847089Y-76802234D01*
X120895427Y-76819827D01*
X120900263Y-76824260D01*
X121876217Y-77800213D01*
X121897100Y-77840328D01*
X121908685Y-77906029D01*
X121962519Y-77999271D01*
X122044993Y-78068476D01*
X122044994Y-78068476D01*
X122044995Y-78068477D01*
X122146167Y-78105300D01*
X122253833Y-78105300D01*
X122355005Y-78068477D01*
X122437481Y-77999271D01*
X122491314Y-77906030D01*
X122510010Y-77800000D01*
X122491314Y-77693970D01*
X122437481Y-77600729D01*
X122436255Y-77599700D01*
X122355006Y-77531523D01*
X122253833Y-77494700D01*
X122249844Y-77494700D01*
X122201506Y-77477107D01*
X122196670Y-77472674D01*
X121953585Y-77229589D01*
X121931845Y-77182969D01*
X121945159Y-77133282D01*
X121987296Y-77103777D01*
X122006759Y-77101215D01*
X122049748Y-77101215D01*
X122150920Y-77064392D01*
X122233396Y-76995186D01*
X122287229Y-76901945D01*
X122305925Y-76795915D01*
X122287229Y-76689885D01*
X122233396Y-76596644D01*
X122219162Y-76584700D01*
X122150921Y-76527438D01*
X122049748Y-76490615D01*
X122045759Y-76490615D01*
X121997421Y-76473022D01*
X121992585Y-76468589D01*
X121963772Y-76439776D01*
X122547100Y-76439776D01*
X122547100Y-76830223D01*
X122550037Y-76855548D01*
X122595780Y-76959145D01*
X122595782Y-76959148D01*
X122675851Y-77039217D01*
X122675854Y-77039219D01*
X122675855Y-77039220D01*
X122779450Y-77084962D01*
X122804774Y-77087900D01*
X122804776Y-77087900D01*
X124345224Y-77087900D01*
X124345226Y-77087900D01*
X124370550Y-77084962D01*
X124474145Y-77039220D01*
X124554220Y-76959145D01*
X124599962Y-76855550D01*
X124602900Y-76830226D01*
X124602900Y-76439774D01*
X124599962Y-76414450D01*
X124554220Y-76310855D01*
X124554219Y-76310854D01*
X124554217Y-76310851D01*
X124548166Y-76304800D01*
X130506503Y-76304800D01*
X130527532Y-76424062D01*
X130588080Y-76528934D01*
X130588083Y-76528938D01*
X130680851Y-76606780D01*
X130794649Y-76648200D01*
X130794651Y-76648200D01*
X130915749Y-76648200D01*
X130915751Y-76648200D01*
X131029549Y-76606780D01*
X131034899Y-76602291D01*
X131083234Y-76584700D01*
X132009648Y-76584700D01*
X132009650Y-76584700D01*
X132080837Y-76565625D01*
X132144662Y-76528776D01*
X132823976Y-75849462D01*
X132860825Y-75785637D01*
X132879900Y-75714450D01*
X132879900Y-75640750D01*
X132879900Y-73753099D01*
X132897493Y-73704761D01*
X132942042Y-73679041D01*
X132955100Y-73677899D01*
X134365056Y-73677899D01*
X134409658Y-73669028D01*
X134460234Y-73635234D01*
X134494028Y-73584658D01*
X134502900Y-73540057D01*
X134502899Y-71159944D01*
X134494028Y-71115342D01*
X134489869Y-71109118D01*
X134460235Y-71064767D01*
X134460231Y-71064764D01*
X134409658Y-71030972D01*
X134409656Y-71030971D01*
X134365057Y-71022100D01*
X130834944Y-71022100D01*
X130834942Y-71022101D01*
X130790340Y-71030972D01*
X130739767Y-71064764D01*
X130705972Y-71115342D01*
X130705971Y-71115343D01*
X130697100Y-71159942D01*
X130697100Y-73540055D01*
X130697101Y-73540057D01*
X130705972Y-73584659D01*
X130739764Y-73635232D01*
X130739765Y-73635232D01*
X130739766Y-73635234D01*
X130790342Y-73669028D01*
X130834943Y-73677900D01*
X132244900Y-73677899D01*
X132293238Y-73695492D01*
X132318958Y-73740041D01*
X132320100Y-73753099D01*
X132320100Y-75530514D01*
X132302507Y-75578852D01*
X132298074Y-75583688D01*
X131878888Y-76002874D01*
X131832268Y-76024614D01*
X131825714Y-76024900D01*
X131083234Y-76024900D01*
X131034899Y-76007309D01*
X131029551Y-76002822D01*
X131029549Y-76002820D01*
X131029547Y-76002819D01*
X130915752Y-75961400D01*
X130915751Y-75961400D01*
X130794649Y-75961400D01*
X130680852Y-76002820D01*
X130680850Y-76002820D01*
X130680848Y-76002822D01*
X130588084Y-76080660D01*
X130588083Y-76080661D01*
X130527532Y-76185537D01*
X130506503Y-76304800D01*
X124548166Y-76304800D01*
X124474148Y-76230782D01*
X124474145Y-76230780D01*
X124370548Y-76185037D01*
X124351100Y-76182781D01*
X124345226Y-76182100D01*
X122804774Y-76182100D01*
X122799510Y-76182710D01*
X122779451Y-76185037D01*
X122675854Y-76230780D01*
X122675851Y-76230782D01*
X122595782Y-76310851D01*
X122595780Y-76310854D01*
X122550037Y-76414451D01*
X122547100Y-76439776D01*
X121963772Y-76439776D01*
X121523781Y-75999784D01*
X121502898Y-75959670D01*
X121491314Y-75893970D01*
X121437481Y-75800729D01*
X121437480Y-75800728D01*
X121355006Y-75731523D01*
X121253833Y-75694700D01*
X121146167Y-75694700D01*
X121044993Y-75731523D01*
X120962519Y-75800728D01*
X120908686Y-75893968D01*
X120889990Y-76000000D01*
X120908289Y-76103779D01*
X120899356Y-76154437D01*
X120859951Y-76187502D01*
X120847297Y-76190893D01*
X120843104Y-76191632D01*
X120741927Y-76228457D01*
X120659453Y-76297662D01*
X120605620Y-76390902D01*
X120586924Y-76496934D01*
X119452900Y-76496934D01*
X119452900Y-76439774D01*
X119449962Y-76414450D01*
X119404220Y-76310855D01*
X119404219Y-76310854D01*
X119404217Y-76310851D01*
X119324148Y-76230782D01*
X119324145Y-76230780D01*
X119220548Y-76185037D01*
X119201100Y-76182781D01*
X119195226Y-76182100D01*
X117654774Y-76182100D01*
X117649510Y-76182710D01*
X117629451Y-76185037D01*
X117525854Y-76230780D01*
X117525851Y-76230782D01*
X117445782Y-76310851D01*
X117445780Y-76310854D01*
X117439060Y-76326075D01*
X117403441Y-76363187D01*
X117370267Y-76370900D01*
X117229303Y-76370900D01*
X117180966Y-76353307D01*
X117155005Y-76331523D01*
X117155002Y-76331521D01*
X117053833Y-76294700D01*
X116946167Y-76294700D01*
X116927617Y-76301451D01*
X116876178Y-76301449D01*
X116836774Y-76268383D01*
X116826700Y-76230785D01*
X116826700Y-76128445D01*
X116844293Y-76080107D01*
X116848726Y-76075271D01*
X117196671Y-75727326D01*
X117243291Y-75705586D01*
X117249845Y-75705300D01*
X117253833Y-75705300D01*
X117361188Y-75666227D01*
X117362331Y-75669370D01*
X117400136Y-75662633D01*
X117439694Y-75685375D01*
X117440852Y-75684218D01*
X117525851Y-75769217D01*
X117525854Y-75769219D01*
X117525855Y-75769220D01*
X117629450Y-75814962D01*
X117654774Y-75817900D01*
X117654776Y-75817900D01*
X119195224Y-75817900D01*
X119195226Y-75817900D01*
X119220550Y-75814962D01*
X119324145Y-75769220D01*
X119404220Y-75689145D01*
X119449962Y-75585550D01*
X119452900Y-75560226D01*
X119452900Y-75169774D01*
X119449962Y-75144450D01*
X119404220Y-75040855D01*
X119404219Y-75040854D01*
X119404217Y-75040851D01*
X119324148Y-74960782D01*
X119324145Y-74960780D01*
X119220548Y-74915037D01*
X119201100Y-74912781D01*
X119195226Y-74912100D01*
X117654774Y-74912100D01*
X117649510Y-74912710D01*
X117629451Y-74915037D01*
X117525854Y-74960780D01*
X117525851Y-74960782D01*
X117445782Y-75040851D01*
X117445778Y-75040857D01*
X117427132Y-75083086D01*
X117391513Y-75120198D01*
X117340371Y-75125732D01*
X117332621Y-75123375D01*
X117253833Y-75094700D01*
X117146167Y-75094700D01*
X117044993Y-75131523D01*
X116962519Y-75200728D01*
X116908685Y-75293970D01*
X116897101Y-75359668D01*
X116876218Y-75399783D01*
X116403377Y-75872624D01*
X116395375Y-75891945D01*
X116360623Y-75929870D01*
X116309623Y-75936583D01*
X116266239Y-75908944D01*
X116250700Y-75863166D01*
X116250700Y-73992444D01*
X116268293Y-73944106D01*
X116272726Y-73939270D01*
X116500870Y-73711126D01*
X116547490Y-73689386D01*
X116554044Y-73689100D01*
X117366470Y-73689100D01*
X117414808Y-73706693D01*
X117440528Y-73751242D01*
X117435262Y-73794675D01*
X117400038Y-73874447D01*
X117400038Y-73874449D01*
X117397100Y-73899776D01*
X117397100Y-74290223D01*
X117400037Y-74315548D01*
X117445780Y-74419145D01*
X117445782Y-74419148D01*
X117525851Y-74499217D01*
X117525854Y-74499219D01*
X117525855Y-74499220D01*
X117629450Y-74544962D01*
X117654774Y-74547900D01*
X117654776Y-74547900D01*
X119195224Y-74547900D01*
X119195226Y-74547900D01*
X119220550Y-74544962D01*
X119324145Y-74499220D01*
X119404220Y-74419145D01*
X119449962Y-74315550D01*
X119452900Y-74290226D01*
X119452900Y-73899774D01*
X119449962Y-73874450D01*
X119414738Y-73794675D01*
X119411307Y-73743350D01*
X119441671Y-73701827D01*
X119483530Y-73689100D01*
X122275229Y-73689100D01*
X122516470Y-73689100D01*
X122564808Y-73706693D01*
X122590528Y-73751242D01*
X122585262Y-73794675D01*
X122550038Y-73874447D01*
X122550038Y-73874449D01*
X122547100Y-73899776D01*
X122547100Y-74290223D01*
X122550037Y-74315548D01*
X122595780Y-74419145D01*
X122595782Y-74419148D01*
X122675851Y-74499217D01*
X122675854Y-74499219D01*
X122675855Y-74499220D01*
X122779450Y-74544962D01*
X122804774Y-74547900D01*
X123270700Y-74547900D01*
X123319038Y-74565493D01*
X123344758Y-74610042D01*
X123345900Y-74623100D01*
X123345900Y-74836900D01*
X123328307Y-74885238D01*
X123283758Y-74910958D01*
X123270700Y-74912100D01*
X122804774Y-74912100D01*
X122799510Y-74912710D01*
X122779451Y-74915037D01*
X122675854Y-74960780D01*
X122675851Y-74960782D01*
X122595782Y-75040851D01*
X122595780Y-75040854D01*
X122550037Y-75144451D01*
X122547100Y-75169776D01*
X122547100Y-75560223D01*
X122550037Y-75585548D01*
X122595780Y-75689145D01*
X122595782Y-75689148D01*
X122675851Y-75769217D01*
X122675854Y-75769219D01*
X122675855Y-75769220D01*
X122779450Y-75814962D01*
X122804774Y-75817900D01*
X122804776Y-75817900D01*
X124345224Y-75817900D01*
X124345226Y-75817900D01*
X124370550Y-75814962D01*
X124474145Y-75769220D01*
X124554220Y-75689145D01*
X124599962Y-75585550D01*
X124602900Y-75560226D01*
X124602900Y-75169774D01*
X124599962Y-75144450D01*
X124554220Y-75040855D01*
X124554219Y-75040854D01*
X124554217Y-75040851D01*
X124474148Y-74960782D01*
X124474145Y-74960780D01*
X124370548Y-74915037D01*
X124351100Y-74912781D01*
X124345226Y-74912100D01*
X124345224Y-74912100D01*
X123879300Y-74912100D01*
X123830962Y-74894507D01*
X123805242Y-74849958D01*
X123804100Y-74836900D01*
X123804100Y-74623100D01*
X123821693Y-74574762D01*
X123866242Y-74549042D01*
X123879300Y-74547900D01*
X124345224Y-74547900D01*
X124345226Y-74547900D01*
X124370550Y-74544962D01*
X124474145Y-74499220D01*
X124522239Y-74451125D01*
X124568858Y-74429386D01*
X124575413Y-74429100D01*
X125552435Y-74429100D01*
X125600773Y-74446693D01*
X125626493Y-74491242D01*
X125626847Y-74493445D01*
X125627689Y-74499219D01*
X125632801Y-74534317D01*
X125632802Y-74534319D01*
X125688195Y-74647627D01*
X125777372Y-74736804D01*
X125777373Y-74736804D01*
X125777375Y-74736806D01*
X125890681Y-74792198D01*
X125964137Y-74802900D01*
X126535862Y-74802899D01*
X126609319Y-74792198D01*
X126722625Y-74736806D01*
X126811806Y-74647625D01*
X126867198Y-74534319D01*
X126877900Y-74460863D01*
X126877899Y-73939138D01*
X126867198Y-73865681D01*
X126811806Y-73752375D01*
X126811804Y-73752373D01*
X126811804Y-73752372D01*
X126722627Y-73663195D01*
X126722625Y-73663194D01*
X126609319Y-73607802D01*
X126609318Y-73607801D01*
X126535867Y-73597100D01*
X125964141Y-73597100D01*
X125964136Y-73597101D01*
X125890682Y-73607801D01*
X125890680Y-73607802D01*
X125777372Y-73663195D01*
X125688195Y-73752372D01*
X125632802Y-73865681D01*
X125632801Y-73865682D01*
X125626849Y-73906541D01*
X125602471Y-73951838D01*
X125554680Y-73970866D01*
X125552435Y-73970900D01*
X124677990Y-73970900D01*
X124629652Y-73953307D01*
X124603932Y-73908758D01*
X124602916Y-73900047D01*
X124602900Y-73899781D01*
X124602900Y-73899774D01*
X124599962Y-73874450D01*
X124599961Y-73874447D01*
X124599310Y-73868831D01*
X124600480Y-73868695D01*
X124604271Y-73823300D01*
X124640499Y-73786782D01*
X124646825Y-73784146D01*
X124660205Y-73779277D01*
X124660205Y-73779276D01*
X124660207Y-73779276D01*
X124706964Y-73740041D01*
X124742681Y-73710071D01*
X124796514Y-73616830D01*
X124815210Y-73510800D01*
X124796514Y-73404770D01*
X124796513Y-73404768D01*
X124744375Y-73314462D01*
X124734300Y-73276862D01*
X124734300Y-72271536D01*
X124744374Y-72233938D01*
X124796514Y-72143630D01*
X124815210Y-72037600D01*
X124796514Y-71931570D01*
X124742681Y-71838329D01*
X124742680Y-71838328D01*
X124660206Y-71769123D01*
X124559033Y-71732300D01*
X124451367Y-71732300D01*
X124350193Y-71769123D01*
X124267719Y-71838328D01*
X124213886Y-71931568D01*
X124213886Y-71931570D01*
X124195190Y-72037600D01*
X124213886Y-72143630D01*
X124266025Y-72233938D01*
X124276100Y-72271536D01*
X124276100Y-73276862D01*
X124266025Y-73314462D01*
X124213886Y-73404768D01*
X124213886Y-73404770D01*
X124195190Y-73510800D01*
X124202779Y-73553842D01*
X124193847Y-73604500D01*
X124154442Y-73637565D01*
X124128722Y-73642100D01*
X123477245Y-73642100D01*
X123428907Y-73624507D01*
X123424070Y-73620074D01*
X123069775Y-73265778D01*
X123010233Y-73241115D01*
X123010232Y-73241114D01*
X122985573Y-73230900D01*
X122985571Y-73230900D01*
X122366371Y-73230900D01*
X116382429Y-73230900D01*
X116298227Y-73265778D01*
X116298225Y-73265779D01*
X116298218Y-73265784D01*
X116023474Y-73540529D01*
X115976854Y-73562269D01*
X115927167Y-73548955D01*
X115897662Y-73506818D01*
X115895100Y-73487355D01*
X115895100Y-72062044D01*
X115912693Y-72013706D01*
X115917126Y-72008870D01*
X116108845Y-71817151D01*
X116155465Y-71795411D01*
X116162019Y-71795125D01*
X119567770Y-71795125D01*
X119567771Y-71795125D01*
X119592431Y-71784909D01*
X119592434Y-71784909D01*
X119651973Y-71760248D01*
X119651973Y-71760247D01*
X119651975Y-71760247D01*
X119904171Y-71508050D01*
X119950790Y-71486311D01*
X119968187Y-71486811D01*
X119992297Y-71490324D01*
X119992302Y-71490324D01*
X119992306Y-71490325D01*
X119992308Y-71490325D01*
X120459292Y-71490325D01*
X120459294Y-71490325D01*
X120459298Y-71490324D01*
X120459302Y-71490324D01*
X120469045Y-71488904D01*
X120527888Y-71480331D01*
X120633698Y-71428604D01*
X120716979Y-71345323D01*
X120768706Y-71239513D01*
X120778700Y-71170919D01*
X120778700Y-71166725D01*
X120796293Y-71118387D01*
X120840842Y-71092667D01*
X120853900Y-71091525D01*
X121058700Y-71091525D01*
X121107038Y-71109118D01*
X121132758Y-71153667D01*
X121133900Y-71166725D01*
X121133900Y-71170927D01*
X121143894Y-71239513D01*
X121195621Y-71345323D01*
X121195622Y-71345325D01*
X121278899Y-71428602D01*
X121278900Y-71428602D01*
X121278902Y-71428604D01*
X121384712Y-71480331D01*
X121429188Y-71486811D01*
X121453297Y-71490324D01*
X121453302Y-71490324D01*
X121453306Y-71490325D01*
X121453308Y-71490325D01*
X121920292Y-71490325D01*
X121920294Y-71490325D01*
X121920298Y-71490324D01*
X121920302Y-71490324D01*
X121930045Y-71488904D01*
X121988888Y-71480331D01*
X122094698Y-71428604D01*
X122177979Y-71345323D01*
X122229706Y-71239513D01*
X122239700Y-71170919D01*
X122239700Y-70553931D01*
X122239699Y-70553922D01*
X122783900Y-70553922D01*
X122783900Y-71170927D01*
X122793894Y-71239513D01*
X122845621Y-71345323D01*
X122845622Y-71345325D01*
X122928899Y-71428602D01*
X122928900Y-71428602D01*
X122928902Y-71428604D01*
X123034712Y-71480331D01*
X123079188Y-71486811D01*
X123103297Y-71490324D01*
X123103302Y-71490324D01*
X123103306Y-71490325D01*
X123103308Y-71490325D01*
X123570292Y-71490325D01*
X123570294Y-71490325D01*
X123570298Y-71490324D01*
X123570302Y-71490324D01*
X123580045Y-71488904D01*
X123638888Y-71480331D01*
X123744698Y-71428604D01*
X123827979Y-71345323D01*
X123879706Y-71239513D01*
X123889700Y-71170919D01*
X123889700Y-70553931D01*
X123879706Y-70485337D01*
X123827979Y-70379527D01*
X123827977Y-70379525D01*
X123827977Y-70379524D01*
X123744700Y-70296247D01*
X123744698Y-70296246D01*
X123638888Y-70244519D01*
X123570302Y-70234525D01*
X123570294Y-70234525D01*
X123103306Y-70234525D01*
X123103297Y-70234525D01*
X123034711Y-70244519D01*
X122928899Y-70296247D01*
X122845622Y-70379524D01*
X122793894Y-70485336D01*
X122783900Y-70553922D01*
X122239699Y-70553922D01*
X122229706Y-70485337D01*
X122177979Y-70379527D01*
X122177977Y-70379525D01*
X122177977Y-70379524D01*
X122094700Y-70296247D01*
X122094698Y-70296246D01*
X121988888Y-70244519D01*
X121920302Y-70234525D01*
X121920294Y-70234525D01*
X121453306Y-70234525D01*
X121453297Y-70234525D01*
X121384711Y-70244519D01*
X121278899Y-70296247D01*
X121195622Y-70379524D01*
X121143894Y-70485336D01*
X121133900Y-70553922D01*
X121133900Y-70558125D01*
X121116307Y-70606463D01*
X121071758Y-70632183D01*
X121058700Y-70633325D01*
X120853900Y-70633325D01*
X120805562Y-70615732D01*
X120779842Y-70571183D01*
X120778700Y-70558125D01*
X120778700Y-70553932D01*
X120778699Y-70553922D01*
X120776030Y-70535605D01*
X120768706Y-70485337D01*
X120716979Y-70379527D01*
X120716977Y-70379525D01*
X120716977Y-70379524D01*
X120633700Y-70296247D01*
X120633698Y-70296246D01*
X120527888Y-70244519D01*
X120459302Y-70234525D01*
X120459294Y-70234525D01*
X119992306Y-70234525D01*
X119992297Y-70234525D01*
X119923711Y-70244519D01*
X119817899Y-70296247D01*
X119734622Y-70379524D01*
X119682894Y-70485336D01*
X119672900Y-70553922D01*
X119672900Y-71060180D01*
X119655307Y-71108518D01*
X119650874Y-71113354D01*
X119449329Y-71314899D01*
X119402709Y-71336639D01*
X119396155Y-71336925D01*
X115990404Y-71336925D01*
X115970130Y-71345323D01*
X115906200Y-71371803D01*
X115667874Y-71610129D01*
X115621254Y-71631868D01*
X115571567Y-71618554D01*
X115542062Y-71576417D01*
X115539500Y-71556954D01*
X115539500Y-70588844D01*
X115557093Y-70540506D01*
X115561526Y-70535670D01*
X115789670Y-70307526D01*
X115836290Y-70285786D01*
X115842844Y-70285500D01*
X119429782Y-70285500D01*
X119429783Y-70285500D01*
X119454443Y-70275284D01*
X119454446Y-70275284D01*
X119513985Y-70250623D01*
X119513985Y-70250622D01*
X119513987Y-70250622D01*
X119904171Y-69860436D01*
X119950789Y-69838698D01*
X119968186Y-69839198D01*
X119992297Y-69842711D01*
X119992302Y-69842711D01*
X119992306Y-69842712D01*
X119992308Y-69842712D01*
X120459292Y-69842712D01*
X120459294Y-69842712D01*
X120459298Y-69842711D01*
X120459302Y-69842711D01*
X120469045Y-69841291D01*
X120527888Y-69832718D01*
X120633698Y-69780991D01*
X120716979Y-69697710D01*
X120768706Y-69591900D01*
X120778700Y-69523306D01*
X120778700Y-69519112D01*
X120796293Y-69470774D01*
X120840842Y-69445054D01*
X120853900Y-69443912D01*
X121058700Y-69443912D01*
X121107038Y-69461505D01*
X121132758Y-69506054D01*
X121133900Y-69519112D01*
X121133900Y-69523314D01*
X121143894Y-69591900D01*
X121195622Y-69697712D01*
X121278899Y-69780989D01*
X121278900Y-69780989D01*
X121278902Y-69780991D01*
X121384712Y-69832718D01*
X121429188Y-69839198D01*
X121453297Y-69842711D01*
X121453302Y-69842711D01*
X121453306Y-69842712D01*
X121453308Y-69842712D01*
X121920292Y-69842712D01*
X121920294Y-69842712D01*
X121920298Y-69842711D01*
X121920302Y-69842711D01*
X121930045Y-69841291D01*
X121988888Y-69832718D01*
X122094698Y-69780991D01*
X122177979Y-69697710D01*
X122229706Y-69591900D01*
X122239700Y-69523306D01*
X122239700Y-68906318D01*
X122239699Y-68906309D01*
X122783900Y-68906309D01*
X122783900Y-69523314D01*
X122793894Y-69591900D01*
X122845622Y-69697712D01*
X122928899Y-69780989D01*
X122928900Y-69780989D01*
X122928902Y-69780991D01*
X123034712Y-69832718D01*
X123079188Y-69839198D01*
X123103297Y-69842711D01*
X123103302Y-69842711D01*
X123103306Y-69842712D01*
X123103308Y-69842712D01*
X123570292Y-69842712D01*
X123570294Y-69842712D01*
X123570298Y-69842711D01*
X123570302Y-69842711D01*
X123580045Y-69841291D01*
X123638888Y-69832718D01*
X123744698Y-69780991D01*
X123827979Y-69697710D01*
X123879706Y-69591900D01*
X123889700Y-69523306D01*
X123889700Y-68906318D01*
X123879706Y-68837724D01*
X123827979Y-68731914D01*
X123827977Y-68731912D01*
X123827977Y-68731911D01*
X123744700Y-68648634D01*
X123744698Y-68648633D01*
X123638888Y-68596906D01*
X123570302Y-68586912D01*
X123570294Y-68586912D01*
X123103306Y-68586912D01*
X123103297Y-68586912D01*
X123034711Y-68596906D01*
X122928899Y-68648634D01*
X122845622Y-68731911D01*
X122793894Y-68837723D01*
X122783900Y-68906309D01*
X122239699Y-68906309D01*
X122229706Y-68837724D01*
X122177979Y-68731914D01*
X122177977Y-68731912D01*
X122177977Y-68731911D01*
X122094700Y-68648634D01*
X122094698Y-68648633D01*
X121988888Y-68596906D01*
X121920302Y-68586912D01*
X121920294Y-68586912D01*
X121453306Y-68586912D01*
X121453297Y-68586912D01*
X121384711Y-68596906D01*
X121278899Y-68648634D01*
X121195622Y-68731911D01*
X121143894Y-68837723D01*
X121133900Y-68906309D01*
X121133900Y-68910512D01*
X121116307Y-68958850D01*
X121071758Y-68984570D01*
X121058700Y-68985712D01*
X120853900Y-68985712D01*
X120805562Y-68968119D01*
X120779842Y-68923570D01*
X120778700Y-68910512D01*
X120778700Y-68906319D01*
X120778699Y-68906309D01*
X120774548Y-68877823D01*
X120768706Y-68837724D01*
X120716979Y-68731914D01*
X120716977Y-68731912D01*
X120716977Y-68731911D01*
X120633700Y-68648634D01*
X120633698Y-68648633D01*
X120527888Y-68596906D01*
X120459302Y-68586912D01*
X120459294Y-68586912D01*
X119992306Y-68586912D01*
X119992297Y-68586912D01*
X119923711Y-68596906D01*
X119817899Y-68648634D01*
X119734622Y-68731911D01*
X119682894Y-68837723D01*
X119672900Y-68906309D01*
X119672900Y-69412567D01*
X119655307Y-69460905D01*
X119650874Y-69465741D01*
X119311341Y-69805274D01*
X119264721Y-69827014D01*
X119258167Y-69827300D01*
X115671229Y-69827300D01*
X115642505Y-69839198D01*
X115587024Y-69862179D01*
X115363074Y-70086129D01*
X115316454Y-70107868D01*
X115266767Y-70094554D01*
X115237262Y-70052417D01*
X115234700Y-70032954D01*
X115234700Y-68963244D01*
X115252293Y-68914906D01*
X115256726Y-68910070D01*
X115535670Y-68631126D01*
X115582290Y-68609386D01*
X115588844Y-68609100D01*
X119458570Y-68609100D01*
X119458571Y-68609100D01*
X119483231Y-68598884D01*
X119483234Y-68598884D01*
X119542773Y-68574223D01*
X119542773Y-68574222D01*
X119542775Y-68574222D01*
X119904171Y-68212824D01*
X119950789Y-68191086D01*
X119968186Y-68191586D01*
X119992297Y-68195099D01*
X119992302Y-68195099D01*
X119992306Y-68195100D01*
X119992308Y-68195100D01*
X120459292Y-68195100D01*
X120459294Y-68195100D01*
X120459298Y-68195099D01*
X120459302Y-68195099D01*
X120469045Y-68193679D01*
X120527888Y-68185106D01*
X120633698Y-68133379D01*
X120716979Y-68050098D01*
X120768706Y-67944288D01*
X120778700Y-67875694D01*
X120778700Y-67871500D01*
X120796293Y-67823162D01*
X120840842Y-67797442D01*
X120853900Y-67796300D01*
X121058700Y-67796300D01*
X121107038Y-67813893D01*
X121132758Y-67858442D01*
X121133900Y-67871500D01*
X121133900Y-67875702D01*
X121143894Y-67944288D01*
X121195622Y-68050100D01*
X121278899Y-68133377D01*
X121278900Y-68133377D01*
X121278902Y-68133379D01*
X121384712Y-68185106D01*
X121429188Y-68191586D01*
X121453297Y-68195099D01*
X121453302Y-68195099D01*
X121453306Y-68195100D01*
X121453308Y-68195100D01*
X121920292Y-68195100D01*
X121920294Y-68195100D01*
X121920298Y-68195099D01*
X121920302Y-68195099D01*
X121930045Y-68193679D01*
X121988888Y-68185106D01*
X122094698Y-68133379D01*
X122177979Y-68050098D01*
X122229706Y-67944288D01*
X122239700Y-67875694D01*
X122239700Y-67258706D01*
X122239699Y-67258697D01*
X122783900Y-67258697D01*
X122783900Y-67875702D01*
X122793894Y-67944288D01*
X122845622Y-68050100D01*
X122928899Y-68133377D01*
X122928900Y-68133377D01*
X122928902Y-68133379D01*
X123034712Y-68185106D01*
X123079188Y-68191586D01*
X123103297Y-68195099D01*
X123103302Y-68195099D01*
X123103306Y-68195100D01*
X123103308Y-68195100D01*
X123570292Y-68195100D01*
X123570294Y-68195100D01*
X123570298Y-68195099D01*
X123570302Y-68195099D01*
X123580045Y-68193679D01*
X123638888Y-68185106D01*
X123744698Y-68133379D01*
X123827979Y-68050098D01*
X123830447Y-68045049D01*
X127697265Y-68045049D01*
X127716371Y-68263439D01*
X127773113Y-68475202D01*
X127773114Y-68475206D01*
X127865759Y-68673886D01*
X127991503Y-68853468D01*
X127991514Y-68853481D01*
X128146518Y-69008485D01*
X128146531Y-69008496D01*
X128149699Y-69010714D01*
X128326108Y-69134237D01*
X128326110Y-69134237D01*
X128326113Y-69134240D01*
X128491457Y-69211340D01*
X128524797Y-69226887D01*
X128736556Y-69283628D01*
X128954951Y-69302735D01*
X129173346Y-69283628D01*
X129385105Y-69226887D01*
X129583794Y-69134237D01*
X129763376Y-69008492D01*
X129918394Y-68853474D01*
X130044139Y-68673892D01*
X130055918Y-68648633D01*
X130092011Y-68571230D01*
X130136789Y-68475203D01*
X130193530Y-68263444D01*
X130212637Y-68045049D01*
X130193530Y-67826654D01*
X130136789Y-67614895D01*
X130053425Y-67436119D01*
X130044142Y-67416211D01*
X130044139Y-67416208D01*
X130044139Y-67416206D01*
X129977130Y-67320507D01*
X129918398Y-67236629D01*
X129918387Y-67236616D01*
X129763383Y-67081612D01*
X129763370Y-67081601D01*
X129583788Y-66955857D01*
X129385108Y-66863212D01*
X129385106Y-66863211D01*
X129385105Y-66863211D01*
X129173346Y-66806470D01*
X129173344Y-66806469D01*
X129173341Y-66806469D01*
X128954951Y-66787363D01*
X128736560Y-66806469D01*
X128736556Y-66806469D01*
X128736556Y-66806470D01*
X128524801Y-66863210D01*
X128524797Y-66863211D01*
X128524793Y-66863212D01*
X128326113Y-66955857D01*
X128146531Y-67081601D01*
X128146518Y-67081612D01*
X127991514Y-67236616D01*
X127991503Y-67236629D01*
X127865759Y-67416211D01*
X127773114Y-67614891D01*
X127773113Y-67614895D01*
X127716371Y-67826658D01*
X127697265Y-68045049D01*
X123830447Y-68045049D01*
X123879706Y-67944288D01*
X123889700Y-67875694D01*
X123889700Y-67258706D01*
X123889533Y-67257563D01*
X123886483Y-67236624D01*
X123879706Y-67190112D01*
X123827979Y-67084302D01*
X123827977Y-67084300D01*
X123827977Y-67084299D01*
X123744700Y-67001022D01*
X123708858Y-66983500D01*
X123638888Y-66949294D01*
X123570302Y-66939300D01*
X123570294Y-66939300D01*
X123103306Y-66939300D01*
X123103297Y-66939300D01*
X123034711Y-66949294D01*
X122928899Y-67001022D01*
X122845622Y-67084299D01*
X122793894Y-67190111D01*
X122783900Y-67258697D01*
X122239699Y-67258697D01*
X122239533Y-67257563D01*
X122236483Y-67236624D01*
X122229706Y-67190112D01*
X122177979Y-67084302D01*
X122177977Y-67084300D01*
X122177977Y-67084299D01*
X122094700Y-67001022D01*
X122058858Y-66983500D01*
X121988888Y-66949294D01*
X121920302Y-66939300D01*
X121920294Y-66939300D01*
X121727046Y-66939300D01*
X121678708Y-66921707D01*
X121652988Y-66877158D01*
X121661921Y-66826500D01*
X121673871Y-66810926D01*
X121739439Y-66745357D01*
X121819221Y-66665575D01*
X121843927Y-66605929D01*
X121843928Y-66605928D01*
X121848140Y-66595758D01*
X121854099Y-66581372D01*
X121854099Y-66045186D01*
X121871692Y-65996848D01*
X121898920Y-65976396D01*
X121949145Y-65954220D01*
X122029220Y-65874145D01*
X122074962Y-65770550D01*
X122077900Y-65745226D01*
X122077900Y-64254774D01*
X122074962Y-64229450D01*
X122029220Y-64125855D01*
X122029219Y-64125854D01*
X122029217Y-64125851D01*
X121949148Y-64045782D01*
X121949145Y-64045780D01*
X121845548Y-64000037D01*
X121826100Y-63997781D01*
X121820226Y-63997100D01*
X121429774Y-63997100D01*
X121424510Y-63997710D01*
X121404451Y-64000037D01*
X121300854Y-64045780D01*
X121300851Y-64045782D01*
X121220782Y-64125851D01*
X121220780Y-64125854D01*
X121175037Y-64229451D01*
X121172100Y-64254776D01*
X121172100Y-65745223D01*
X121175037Y-65770548D01*
X121220780Y-65874145D01*
X121220782Y-65874148D01*
X121300850Y-65954216D01*
X121300853Y-65954218D01*
X121300855Y-65954220D01*
X121351075Y-65976394D01*
X121388186Y-66012012D01*
X121395899Y-66045186D01*
X121395899Y-66409756D01*
X121378306Y-66458094D01*
X121373873Y-66462930D01*
X121333529Y-66503274D01*
X121286909Y-66525014D01*
X121280355Y-66525300D01*
X120464645Y-66525300D01*
X120416307Y-66507707D01*
X120390587Y-66463158D01*
X120399520Y-66412500D01*
X120411467Y-66396929D01*
X120569222Y-66239175D01*
X120571288Y-66234188D01*
X120593884Y-66179634D01*
X120593884Y-66179632D01*
X120604100Y-66154971D01*
X120604100Y-66045186D01*
X120621693Y-65996848D01*
X120648924Y-65976394D01*
X120699145Y-65954220D01*
X120779220Y-65874145D01*
X120824962Y-65770550D01*
X120827900Y-65745226D01*
X120827900Y-64254774D01*
X120824962Y-64229450D01*
X120779220Y-64125855D01*
X120779219Y-64125854D01*
X120779217Y-64125851D01*
X120699148Y-64045782D01*
X120699145Y-64045780D01*
X120595548Y-64000037D01*
X120576100Y-63997781D01*
X120570226Y-63997100D01*
X120179774Y-63997100D01*
X120174510Y-63997710D01*
X120154451Y-64000037D01*
X120050854Y-64045780D01*
X120050851Y-64045782D01*
X119970782Y-64125851D01*
X119970780Y-64125854D01*
X119925037Y-64229451D01*
X119922100Y-64254776D01*
X119922100Y-65745223D01*
X119925037Y-65770548D01*
X119970780Y-65874145D01*
X119970782Y-65874148D01*
X120050850Y-65954216D01*
X120050853Y-65954218D01*
X120050855Y-65954220D01*
X120058180Y-65957454D01*
X120095293Y-65993071D01*
X120100830Y-66044212D01*
X120080984Y-66079419D01*
X120071312Y-66089090D01*
X120024695Y-66110832D01*
X120018137Y-66111118D01*
X119450293Y-66111118D01*
X119401955Y-66093525D01*
X119376235Y-66048976D01*
X119385168Y-65998318D01*
X119419918Y-65967126D01*
X119449141Y-65954222D01*
X119449141Y-65954221D01*
X119449145Y-65954220D01*
X119529220Y-65874145D01*
X119574962Y-65770550D01*
X119577900Y-65745226D01*
X119577900Y-64254774D01*
X119574962Y-64229450D01*
X119529220Y-64125855D01*
X119529219Y-64125854D01*
X119529217Y-64125851D01*
X119449148Y-64045782D01*
X119449145Y-64045780D01*
X119345548Y-64000037D01*
X119326100Y-63997781D01*
X119320226Y-63997100D01*
X119320224Y-63997100D01*
X119219913Y-63997100D01*
X119194194Y-63992565D01*
X119174233Y-63985300D01*
X119066567Y-63985300D01*
X119046606Y-63992565D01*
X119020887Y-63997100D01*
X118929774Y-63997100D01*
X118924510Y-63997710D01*
X118904451Y-64000037D01*
X118800854Y-64045780D01*
X118800851Y-64045782D01*
X118720782Y-64125851D01*
X118720780Y-64125854D01*
X118675037Y-64229451D01*
X118672100Y-64254776D01*
X118672100Y-65745223D01*
X118675037Y-65770548D01*
X118720780Y-65874145D01*
X118720782Y-65874148D01*
X118800851Y-65954217D01*
X118800858Y-65954222D01*
X118830082Y-65967126D01*
X118867195Y-66002745D01*
X118872729Y-66053886D01*
X118844095Y-66096620D01*
X118799707Y-66111118D01*
X118746774Y-66111118D01*
X118698437Y-66093525D01*
X118672476Y-66071741D01*
X118672473Y-66071739D01*
X118571304Y-66034918D01*
X118463638Y-66034918D01*
X118362464Y-66071741D01*
X118279990Y-66140946D01*
X118226157Y-66234186D01*
X118207461Y-66340218D01*
X118220055Y-66411642D01*
X118211122Y-66462300D01*
X118171717Y-66495365D01*
X118145997Y-66499900D01*
X118050567Y-66499900D01*
X117949393Y-66536723D01*
X117866919Y-66605928D01*
X117813086Y-66699168D01*
X117794390Y-66805200D01*
X117813086Y-66911231D01*
X117866919Y-67004471D01*
X117949393Y-67073676D01*
X117949394Y-67073676D01*
X117949395Y-67073677D01*
X118050567Y-67110500D01*
X118158233Y-67110500D01*
X118259405Y-67073677D01*
X118341881Y-67004471D01*
X118341880Y-67004471D01*
X118345906Y-67001094D01*
X118394244Y-66983500D01*
X119663432Y-66983500D01*
X119711770Y-67001093D01*
X119737490Y-67045642D01*
X119730991Y-67091727D01*
X119721814Y-67110500D01*
X119682894Y-67190111D01*
X119672900Y-67258697D01*
X119672900Y-67764955D01*
X119655307Y-67813293D01*
X119650874Y-67818129D01*
X119340129Y-68128874D01*
X119293509Y-68150614D01*
X119286955Y-68150900D01*
X115417229Y-68150900D01*
X115334652Y-68185105D01*
X115334650Y-68185106D01*
X115334648Y-68185107D01*
X115333026Y-68185778D01*
X115333023Y-68185780D01*
X114811379Y-68707423D01*
X114811376Y-68707427D01*
X114808345Y-68714748D01*
X114808344Y-68714751D01*
X114776500Y-68791630D01*
X114776500Y-76637450D01*
X114758907Y-76685788D01*
X114754474Y-76690624D01*
X114404674Y-77040424D01*
X114358054Y-77062164D01*
X114308367Y-77048850D01*
X114278862Y-77006713D01*
X114276300Y-76987250D01*
X114276300Y-76504307D01*
X114276299Y-76504297D01*
X114271096Y-76468589D01*
X114266306Y-76435712D01*
X114214579Y-76329902D01*
X114214577Y-76329900D01*
X114214577Y-76329899D01*
X114131300Y-76246622D01*
X114131298Y-76246621D01*
X114025488Y-76194894D01*
X113956902Y-76184900D01*
X113956894Y-76184900D01*
X113489906Y-76184900D01*
X113489897Y-76184900D01*
X113421311Y-76194894D01*
X113315499Y-76246622D01*
X113232222Y-76329899D01*
X113180494Y-76435711D01*
X113170500Y-76504297D01*
X113170500Y-77121302D01*
X113180494Y-77189888D01*
X113232222Y-77295700D01*
X113311278Y-77374756D01*
X113333018Y-77421376D01*
X113319704Y-77471063D01*
X113286887Y-77497404D01*
X113277295Y-77501377D01*
X113277291Y-77501380D01*
X112896262Y-77882407D01*
X112849642Y-77904146D01*
X112799955Y-77890832D01*
X112770450Y-77848695D01*
X112769035Y-77842316D01*
X112756914Y-77773570D01*
X112703081Y-77680329D01*
X112692594Y-77671529D01*
X112620606Y-77611123D01*
X112519433Y-77574300D01*
X112411767Y-77574300D01*
X112410451Y-77574300D01*
X112404775Y-77576844D01*
X112310596Y-77611122D01*
X112310595Y-77611123D01*
X112290116Y-77628307D01*
X112241779Y-77645900D01*
X110795187Y-77645900D01*
X110746849Y-77628307D01*
X110726395Y-77601076D01*
X110704220Y-77550855D01*
X110704219Y-77550854D01*
X110704217Y-77550851D01*
X110624148Y-77470782D01*
X110624145Y-77470780D01*
X110520548Y-77425037D01*
X110501100Y-77422781D01*
X110495226Y-77422100D01*
X109004774Y-77422100D01*
X108999510Y-77422710D01*
X108979451Y-77425037D01*
X108875854Y-77470780D01*
X108875851Y-77470782D01*
X108795782Y-77550851D01*
X108795780Y-77550854D01*
X108795780Y-77550855D01*
X108773604Y-77601076D01*
X108737987Y-77638187D01*
X108704813Y-77645900D01*
X106230796Y-77645900D01*
X106200909Y-77637890D01*
X106200588Y-77638773D01*
X106093233Y-77599700D01*
X105985567Y-77599700D01*
X105884393Y-77636523D01*
X105801919Y-77705728D01*
X105748086Y-77798968D01*
X105729390Y-77905000D01*
X104768951Y-77905000D01*
X104731840Y-77604113D01*
X104731480Y-77600459D01*
X104672724Y-76803926D01*
X104672546Y-76800291D01*
X104663450Y-76429776D01*
X108747100Y-76429776D01*
X108747100Y-76820223D01*
X108750037Y-76845548D01*
X108795780Y-76949145D01*
X108795782Y-76949148D01*
X108875851Y-77029217D01*
X108875854Y-77029219D01*
X108875855Y-77029220D01*
X108979450Y-77074962D01*
X109004774Y-77077900D01*
X109004776Y-77077900D01*
X110495224Y-77077900D01*
X110495226Y-77077900D01*
X110520550Y-77074962D01*
X110624145Y-77029220D01*
X110704220Y-76949145D01*
X110726395Y-76898923D01*
X110762013Y-76861813D01*
X110795187Y-76854100D01*
X111445300Y-76854100D01*
X111493638Y-76871693D01*
X111519358Y-76916242D01*
X111520500Y-76929300D01*
X111520500Y-77121302D01*
X111530494Y-77189888D01*
X111582222Y-77295700D01*
X111665499Y-77378977D01*
X111665500Y-77378977D01*
X111665502Y-77378979D01*
X111771312Y-77430706D01*
X111821580Y-77438030D01*
X111839897Y-77440699D01*
X111839902Y-77440699D01*
X111839906Y-77440700D01*
X111839908Y-77440700D01*
X112306892Y-77440700D01*
X112306894Y-77440700D01*
X112368214Y-77431765D01*
X112372571Y-77432668D01*
X112373780Y-77431541D01*
X112394573Y-77421376D01*
X112481298Y-77378979D01*
X112564579Y-77295698D01*
X112616306Y-77189888D01*
X112626300Y-77121294D01*
X112626300Y-76504306D01*
X112616306Y-76435712D01*
X112564579Y-76329902D01*
X112564577Y-76329900D01*
X112564577Y-76329899D01*
X112481300Y-76246622D01*
X112481298Y-76246621D01*
X112375488Y-76194894D01*
X112306902Y-76184900D01*
X112306894Y-76184900D01*
X111839906Y-76184900D01*
X111839897Y-76184900D01*
X111771311Y-76194894D01*
X111665499Y-76246622D01*
X111582223Y-76329898D01*
X111582221Y-76329901D01*
X111582221Y-76329902D01*
X111570572Y-76353729D01*
X111533539Y-76389427D01*
X111503015Y-76395900D01*
X110795187Y-76395900D01*
X110746849Y-76378307D01*
X110726395Y-76351076D01*
X110704220Y-76300855D01*
X110704219Y-76300854D01*
X110704217Y-76300851D01*
X110624148Y-76220782D01*
X110624145Y-76220780D01*
X110520548Y-76175037D01*
X110501100Y-76172781D01*
X110495226Y-76172100D01*
X109004774Y-76172100D01*
X108999510Y-76172710D01*
X108979451Y-76175037D01*
X108875854Y-76220780D01*
X108875851Y-76220782D01*
X108795782Y-76300851D01*
X108795780Y-76300854D01*
X108750037Y-76404451D01*
X108747100Y-76429776D01*
X104663450Y-76429776D01*
X104652945Y-76001833D01*
X104652945Y-75998155D01*
X104653698Y-75967499D01*
X104672546Y-75199706D01*
X104672724Y-75196075D01*
X104673926Y-75179776D01*
X108747100Y-75179776D01*
X108747100Y-75570223D01*
X108750037Y-75595548D01*
X108795780Y-75699145D01*
X108795782Y-75699148D01*
X108875851Y-75779217D01*
X108875854Y-75779219D01*
X108875855Y-75779220D01*
X108979450Y-75824962D01*
X109004774Y-75827900D01*
X109004776Y-75827900D01*
X110495224Y-75827900D01*
X110495226Y-75827900D01*
X110520550Y-75824962D01*
X110624145Y-75779220D01*
X110704220Y-75699145D01*
X110726395Y-75648923D01*
X110762013Y-75611813D01*
X110795187Y-75604100D01*
X111449053Y-75604100D01*
X111497391Y-75621693D01*
X111523111Y-75666242D01*
X111523467Y-75668458D01*
X111530493Y-75716687D01*
X111582222Y-75822500D01*
X111665499Y-75905777D01*
X111665500Y-75905777D01*
X111665502Y-75905779D01*
X111771312Y-75957506D01*
X111821580Y-75964830D01*
X111839897Y-75967499D01*
X111839902Y-75967499D01*
X111839906Y-75967500D01*
X111839908Y-75967500D01*
X112306892Y-75967500D01*
X112306894Y-75967500D01*
X112306898Y-75967499D01*
X112306902Y-75967499D01*
X112316645Y-75966079D01*
X112375488Y-75957506D01*
X112481298Y-75905779D01*
X112564579Y-75822498D01*
X112616306Y-75716688D01*
X112626300Y-75648094D01*
X112626300Y-75031106D01*
X112626299Y-75031097D01*
X113170500Y-75031097D01*
X113170500Y-75648102D01*
X113180494Y-75716688D01*
X113232222Y-75822500D01*
X113315499Y-75905777D01*
X113315500Y-75905777D01*
X113315502Y-75905779D01*
X113421312Y-75957506D01*
X113471580Y-75964830D01*
X113489897Y-75967499D01*
X113489902Y-75967499D01*
X113489906Y-75967500D01*
X113489908Y-75967500D01*
X113956892Y-75967500D01*
X113956894Y-75967500D01*
X113956898Y-75967499D01*
X113956902Y-75967499D01*
X113966645Y-75966079D01*
X114025488Y-75957506D01*
X114131298Y-75905779D01*
X114214579Y-75822498D01*
X114266306Y-75716688D01*
X114276300Y-75648094D01*
X114276300Y-75031106D01*
X114266306Y-74962512D01*
X114214579Y-74856702D01*
X114214577Y-74856700D01*
X114214577Y-74856699D01*
X114131300Y-74773422D01*
X114056400Y-74736806D01*
X114025488Y-74721694D01*
X113956902Y-74711700D01*
X113956894Y-74711700D01*
X113489906Y-74711700D01*
X113489897Y-74711700D01*
X113421311Y-74721694D01*
X113315499Y-74773422D01*
X113232222Y-74856699D01*
X113180494Y-74962511D01*
X113170500Y-75031097D01*
X112626299Y-75031097D01*
X112616306Y-74962512D01*
X112564579Y-74856702D01*
X112564577Y-74856700D01*
X112564577Y-74856699D01*
X112481300Y-74773422D01*
X112406400Y-74736806D01*
X112375488Y-74721694D01*
X112306902Y-74711700D01*
X112306894Y-74711700D01*
X111839906Y-74711700D01*
X111839897Y-74711700D01*
X111771311Y-74721694D01*
X111665499Y-74773422D01*
X111582222Y-74856699D01*
X111530494Y-74962511D01*
X111520500Y-75031097D01*
X111520500Y-75070700D01*
X111502907Y-75119038D01*
X111458358Y-75144758D01*
X111445300Y-75145900D01*
X110795187Y-75145900D01*
X110746849Y-75128307D01*
X110726395Y-75101076D01*
X110704220Y-75050855D01*
X110704219Y-75050854D01*
X110704217Y-75050851D01*
X110624148Y-74970782D01*
X110624145Y-74970780D01*
X110520548Y-74925037D01*
X110501100Y-74922781D01*
X110495226Y-74922100D01*
X109004774Y-74922100D01*
X108999510Y-74922710D01*
X108979451Y-74925037D01*
X108875854Y-74970780D01*
X108875851Y-74970782D01*
X108795782Y-75050851D01*
X108795780Y-75050854D01*
X108750037Y-75154451D01*
X108747100Y-75179776D01*
X104673926Y-75179776D01*
X104731482Y-74399517D01*
X104731839Y-74395890D01*
X104829609Y-73603197D01*
X104830141Y-73599602D01*
X104966690Y-72812651D01*
X104967409Y-72809039D01*
X104975287Y-72773956D01*
X105003044Y-72730647D01*
X105052145Y-72715313D01*
X105099615Y-72735127D01*
X105115663Y-72756290D01*
X105119984Y-72764771D01*
X105210229Y-72855016D01*
X105323943Y-72912956D01*
X105323945Y-72912957D01*
X105418292Y-72927900D01*
X105418296Y-72927900D01*
X107681704Y-72927900D01*
X107681708Y-72927900D01*
X107776055Y-72912957D01*
X107889771Y-72855016D01*
X107980016Y-72764771D01*
X108037957Y-72651055D01*
X108052900Y-72556708D01*
X108052900Y-71993292D01*
X108037957Y-71898945D01*
X107980016Y-71785229D01*
X107889771Y-71694984D01*
X107776055Y-71637043D01*
X107776057Y-71637043D01*
X107681710Y-71622100D01*
X107681708Y-71622100D01*
X105418292Y-71622100D01*
X105418289Y-71622100D01*
X105363046Y-71630850D01*
X105312551Y-71621035D01*
X105280179Y-71581058D01*
X105278806Y-71536521D01*
X105356311Y-71256456D01*
X105357377Y-71252942D01*
X105607920Y-70494538D01*
X105609141Y-70491125D01*
X105896590Y-69745942D01*
X105897983Y-69742579D01*
X106221662Y-69012371D01*
X106223223Y-69009071D01*
X106582315Y-68295678D01*
X106584047Y-68292437D01*
X106724191Y-68045049D01*
X111787362Y-68045049D01*
X111806468Y-68263439D01*
X111863210Y-68475202D01*
X111863211Y-68475206D01*
X111955857Y-68673886D01*
X111955860Y-68673893D01*
X111996485Y-68731911D01*
X112081600Y-68853469D01*
X112081611Y-68853482D01*
X112236615Y-69008486D01*
X112236628Y-69008497D01*
X112292643Y-69047719D01*
X112416205Y-69134238D01*
X112416208Y-69134239D01*
X112416208Y-69134240D01*
X112578499Y-69209916D01*
X112614895Y-69226888D01*
X112826654Y-69283629D01*
X113045049Y-69302736D01*
X113263444Y-69283629D01*
X113475203Y-69226888D01*
X113673893Y-69134238D01*
X113853475Y-69008493D01*
X114008493Y-68853475D01*
X114134238Y-68673893D01*
X114226888Y-68475203D01*
X114283629Y-68263444D01*
X114302736Y-68045049D01*
X114283629Y-67826654D01*
X114226888Y-67614895D01*
X114143524Y-67436119D01*
X114134240Y-67416209D01*
X114134237Y-67416205D01*
X114079547Y-67338100D01*
X114008493Y-67236623D01*
X114008492Y-67236622D01*
X114008490Y-67236619D01*
X113853482Y-67081611D01*
X113853469Y-67081600D01*
X113763796Y-67018811D01*
X113673893Y-66955860D01*
X113673889Y-66955858D01*
X113673889Y-66955857D01*
X113475206Y-66863211D01*
X113475204Y-66863210D01*
X113475203Y-66863210D01*
X113263444Y-66806469D01*
X113263442Y-66806468D01*
X113263439Y-66806468D01*
X113045049Y-66787362D01*
X112826658Y-66806468D01*
X112826654Y-66806468D01*
X112826654Y-66806469D01*
X112751898Y-66826500D01*
X112614895Y-66863210D01*
X112614891Y-66863211D01*
X112416209Y-66955857D01*
X112416205Y-66955860D01*
X112236619Y-67081607D01*
X112081607Y-67236619D01*
X111955860Y-67416205D01*
X111955857Y-67416209D01*
X111863211Y-67614891D01*
X111863210Y-67614895D01*
X111806468Y-67826658D01*
X111787362Y-68045049D01*
X106724191Y-68045049D01*
X106977729Y-67597492D01*
X106979604Y-67594364D01*
X107406915Y-66919565D01*
X107408930Y-66916550D01*
X107868842Y-66263525D01*
X107870995Y-66260621D01*
X108362405Y-65630939D01*
X108364700Y-65628142D01*
X108401052Y-65586000D01*
X114352103Y-65586000D01*
X114373132Y-65705262D01*
X114433680Y-65810134D01*
X114433683Y-65810138D01*
X114526451Y-65887980D01*
X114640249Y-65929400D01*
X114640251Y-65929400D01*
X114761349Y-65929400D01*
X114761351Y-65929400D01*
X114875149Y-65887980D01*
X114927430Y-65844110D01*
X114941038Y-65832693D01*
X114989375Y-65815100D01*
X115203570Y-65815100D01*
X115203571Y-65815100D01*
X115228231Y-65804884D01*
X115228234Y-65804884D01*
X115258004Y-65792553D01*
X115287775Y-65780222D01*
X116284971Y-64783026D01*
X116331591Y-64761286D01*
X116338145Y-64761000D01*
X116386949Y-64761000D01*
X116386951Y-64761000D01*
X116500749Y-64719580D01*
X116593517Y-64641738D01*
X116654068Y-64536861D01*
X116675097Y-64417600D01*
X116654068Y-64298339D01*
X116628916Y-64254774D01*
X116593519Y-64193465D01*
X116593516Y-64193461D01*
X116547133Y-64154541D01*
X116500749Y-64115620D01*
X116386951Y-64074200D01*
X116265849Y-64074200D01*
X116152052Y-64115620D01*
X116152050Y-64115620D01*
X116152048Y-64115622D01*
X116059284Y-64193460D01*
X116059283Y-64193461D01*
X115998732Y-64298337D01*
X115976561Y-64424079D01*
X115973212Y-64423488D01*
X115960110Y-64459489D01*
X115955677Y-64464325D01*
X115085129Y-65334874D01*
X115038509Y-65356614D01*
X115031955Y-65356900D01*
X114989375Y-65356900D01*
X114941038Y-65339307D01*
X114875151Y-65284022D01*
X114875149Y-65284020D01*
X114875147Y-65284019D01*
X114761352Y-65242600D01*
X114761351Y-65242600D01*
X114640249Y-65242600D01*
X114526452Y-65284020D01*
X114526450Y-65284020D01*
X114526448Y-65284022D01*
X114433684Y-65361860D01*
X114433683Y-65361861D01*
X114373132Y-65466737D01*
X114352103Y-65586000D01*
X108401052Y-65586000D01*
X108886428Y-65023314D01*
X108888835Y-65020659D01*
X109439603Y-64442169D01*
X109442169Y-64439603D01*
X110020659Y-63888835D01*
X110023314Y-63886428D01*
X110628142Y-63364700D01*
X110630939Y-63362405D01*
X111260621Y-62870995D01*
X111263525Y-62868842D01*
X111916550Y-62408930D01*
X111919565Y-62406915D01*
X112594364Y-61979604D01*
X112597492Y-61977729D01*
X113292450Y-61584039D01*
X113295678Y-61582315D01*
X114009071Y-61223223D01*
X114012371Y-61221662D01*
X114742579Y-60897983D01*
X114745942Y-60896590D01*
X115491125Y-60609141D01*
X115494538Y-60607920D01*
X116252970Y-60357368D01*
X116256444Y-60356314D01*
X116754770Y-60218409D01*
X116806048Y-60222473D01*
X116842718Y-60258548D01*
X116847620Y-60309753D01*
X116818461Y-60352130D01*
X116808967Y-60357888D01*
X116785231Y-60369982D01*
X116785228Y-60369984D01*
X116694984Y-60460228D01*
X116637043Y-60573943D01*
X116622100Y-60668289D01*
X116622100Y-62931710D01*
X116637043Y-63026056D01*
X116686569Y-63123256D01*
X116694984Y-63139771D01*
X116785229Y-63230016D01*
X116898943Y-63287956D01*
X116898945Y-63287957D01*
X116993292Y-63302900D01*
X116993296Y-63302900D01*
X117556704Y-63302900D01*
X117556708Y-63302900D01*
X117651055Y-63287957D01*
X117764771Y-63230016D01*
X117855016Y-63139771D01*
X117912957Y-63026055D01*
X117927900Y-62931708D01*
X117927900Y-60668292D01*
X117912957Y-60573945D01*
X117855016Y-60460229D01*
X117764771Y-60369984D01*
X117651055Y-60312043D01*
X117651057Y-60312043D01*
X117556710Y-60297100D01*
X117556708Y-60297100D01*
X117024107Y-60297100D01*
X116975769Y-60279507D01*
X116950049Y-60234958D01*
X116958982Y-60184300D01*
X116998387Y-60151235D01*
X117004041Y-60149426D01*
X117026231Y-60143285D01*
X117029757Y-60142402D01*
X117809046Y-59967407D01*
X117812651Y-59966690D01*
X118599602Y-59830141D01*
X118603197Y-59829609D01*
X119395890Y-59731839D01*
X119399517Y-59731482D01*
X120196075Y-59672724D01*
X120199706Y-59672546D01*
X120998167Y-59652945D01*
X121001833Y-59652945D01*
X121800291Y-59672546D01*
G37*
%TD.AperFunction*%
%TD*%
M02*
