%TF.GenerationSoftware,KiCad,Pcbnew,8.0.6*%
%TF.CreationDate,2024-12-04T23:44:22+08:00*%
%TF.ProjectId,f1oc,66316f63-2e6b-4696-9361-645f70636258,v0.1*%
%TF.SameCoordinates,Original*%
%TF.FileFunction,Paste,Bot*%
%TF.FilePolarity,Positive*%
%FSLAX46Y46*%
G04 Gerber Fmt 4.6, Leading zero omitted, Abs format (unit mm)*
G04 Created by KiCad (PCBNEW 8.0.6) date 2024-12-04 23:44:22*
%MOMM*%
%LPD*%
G01*
G04 APERTURE LIST*
G04 Aperture macros list*
%AMRoundRect*
0 Rectangle with rounded corners*
0 $1 Rounding radius*
0 $2 $3 $4 $5 $6 $7 $8 $9 X,Y pos of 4 corners*
0 Add a 4 corners polygon primitive as box body*
4,1,4,$2,$3,$4,$5,$6,$7,$8,$9,$2,$3,0*
0 Add four circle primitives for the rounded corners*
1,1,$1+$1,$2,$3*
1,1,$1+$1,$4,$5*
1,1,$1+$1,$6,$7*
1,1,$1+$1,$8,$9*
0 Add four rect primitives between the rounded corners*
20,1,$1+$1,$2,$3,$4,$5,0*
20,1,$1+$1,$4,$5,$6,$7,0*
20,1,$1+$1,$6,$7,$8,$9,0*
20,1,$1+$1,$8,$9,$2,$3,0*%
G04 Aperture macros list end*
%ADD10RoundRect,0.200000X-0.200000X-0.275000X0.200000X-0.275000X0.200000X0.275000X-0.200000X0.275000X0*%
%ADD11RoundRect,0.150000X-0.150000X-0.700000X0.150000X-0.700000X0.150000X0.700000X-0.150000X0.700000X0*%
%ADD12RoundRect,0.250000X-0.250000X-1.100000X0.250000X-1.100000X0.250000X1.100000X-0.250000X1.100000X0*%
%ADD13RoundRect,0.225000X-0.250000X0.225000X-0.250000X-0.225000X0.250000X-0.225000X0.250000X0.225000X0*%
%ADD14RoundRect,0.150000X0.700000X-0.150000X0.700000X0.150000X-0.700000X0.150000X-0.700000X-0.150000X0*%
%ADD15RoundRect,0.250000X1.100000X-0.250000X1.100000X0.250000X-1.100000X0.250000X-1.100000X-0.250000X0*%
%ADD16RoundRect,0.150000X0.725000X0.150000X-0.725000X0.150000X-0.725000X-0.150000X0.725000X-0.150000X0*%
%ADD17RoundRect,0.200000X0.200000X0.275000X-0.200000X0.275000X-0.200000X-0.275000X0.200000X-0.275000X0*%
%ADD18R,3.500000X2.350000*%
G04 APERTURE END LIST*
D10*
%TO.C,R15*%
X121686800Y-70862425D03*
X123336800Y-70862425D03*
%TD*%
D11*
%TO.C,J3*%
X119125000Y-65000000D03*
X120375000Y-65000000D03*
X121625000Y-65000000D03*
X122875000Y-65000000D03*
D12*
X117275000Y-61800000D03*
X124725000Y-61800000D03*
%TD*%
D10*
%TO.C,R9*%
X121686800Y-67567200D03*
X123336800Y-67567200D03*
%TD*%
D13*
%TO.C,C7*%
X126250000Y-74200000D03*
X126250000Y-75750000D03*
%TD*%
D10*
%TO.C,R14*%
X118575800Y-69214812D03*
X120225800Y-69214812D03*
%TD*%
%TO.C,R16*%
X118575800Y-70862425D03*
X120225800Y-70862425D03*
%TD*%
D14*
%TO.C,J1*%
X109750000Y-77875000D03*
X109750000Y-76625000D03*
X109750000Y-75375000D03*
X109750000Y-74125000D03*
D15*
X106550000Y-79725000D03*
X106550000Y-72275000D03*
%TD*%
D10*
%TO.C,R13*%
X121686800Y-69214812D03*
X123336800Y-69214812D03*
%TD*%
D16*
%TO.C,U4*%
X123575000Y-74095000D03*
X123575000Y-75365000D03*
X123575000Y-76635000D03*
X123575000Y-77905000D03*
X118425000Y-77905000D03*
X118425000Y-76635000D03*
X118425000Y-75365000D03*
X118425000Y-74095000D03*
%TD*%
D17*
%TO.C,R3*%
X113723400Y-76812800D03*
X112073400Y-76812800D03*
%TD*%
%TO.C,R11*%
X113723400Y-75339600D03*
X112073400Y-75339600D03*
%TD*%
D10*
%TO.C,R12*%
X118575800Y-67567200D03*
X120225800Y-67567200D03*
%TD*%
D18*
%TO.C,L1*%
X132600000Y-72350000D03*
X132600000Y-78400000D03*
%TD*%
M02*
