M48
; DRILL file {KiCad 8.0.6} date 2024-12-04T23:44:22+0800
; FORMAT={-:-/ absolute / inch / decimal}
; #@! TF.CreationDate,2024-12-04T23:44:22+08:00
; #@! TF.GenerationSoftware,Kicad,Pcbnew,8.0.6
; #@! TF.FileFunction,Plated,1,2,PTH
FMAT,2
INCH
; #@! TA.AperFunction,Plated,PTH,ViaDrill
T1C0.0060
; #@! TA.AperFunction,Plated,PTH,ViaDrill
T2C0.0080
; #@! TA.AperFunction,Plated,PTH,ViaDrill
T3C0.0150
%
G90
G05
T1
X4.1748Y-3.0671
X4.3518Y-3.1616
X4.4278Y-3.0661
X4.4378Y-3.0861
X4.4558Y-3.1001
X4.4764Y-3.0867
X4.4778Y-2.9661
X4.4778Y-3.0261
X4.6063Y-3.0157
X4.6142Y-2.9685
X4.6238Y-3.1941
X4.6494Y-2.9171
X4.6498Y-2.6301
X4.666Y-2.6118
X4.6898Y-2.5311
X4.6898Y-3.1601
X4.6918Y-3.1941
X4.7118Y-3.2101
X4.7597Y-3.0117
X4.7717Y-2.9921
X4.803Y-3.0235
X4.811Y-3.063
X4.8652Y-2.9171
X4.9018Y-2.8361
X4.9018Y-2.8941
X5.1518Y-3.0041
T2
X4.1938Y-3.0081
X4.2358Y-3.2681
X4.2378Y-2.7321
X4.2618Y-2.9201
X4.3088Y-3.1671
X4.3618Y-2.5881
X4.3658Y-2.8281
X4.3658Y-3.4101
X4.4078Y-3.1301
X4.4318Y-3.2201
X4.4678Y-2.4941
X4.4698Y-2.8861
X4.4698Y-3.4101
X4.5158Y-2.5821
X4.5588Y-3.0921
X4.5798Y-2.5361
X4.5838Y-2.7271
X4.5898Y-3.5021
X4.5918Y-3.4381
X4.5938Y-3.3741
X4.5958Y-3.3081
X4.5998Y-2.6171
X4.6938Y-3.5021
X4.7318Y-2.4321
X4.7538Y-3.3421
X4.7538Y-3.4071
X4.7558Y-3.1341
X4.7558Y-3.2361
X4.7618Y-2.8501
X4.7838Y-2.4321
X4.7858Y-2.9501
X4.7948Y-3.5021
X4.8238Y-2.6921
X4.8418Y-3.1341
X4.8488Y-3.2571
X4.8578Y-2.6601
X4.8578Y-2.7241
X4.8578Y-2.7881
X4.8988Y-3.5021
X4.9088Y-3.3421
X4.9088Y-3.4071
X4.9088Y-3.4571
X4.9238Y-2.5821
X4.9418Y-2.7541
X4.9658Y-3.0381
X4.9988Y-2.6271
X4.9998Y-3.5021
X5.0038Y-2.5071
X5.0198Y-2.7741
X5.0318Y-2.9061
X5.0318Y-3.0381
X5.0538Y-3.4141
X5.0658Y-2.5821
X5.1158Y-2.8361
X5.1378Y-3.1981
X5.1458Y-2.9141
X5.1538Y-3.4121
X5.2198Y-3.2861
X5.2788Y-2.9671
X5.2898Y-2.7341
X5.3078Y-3.2021
X5.3278Y-3.0781
X5.3498Y-2.8701
T3
X5.2205Y-3.0915
M30
