%TF.GenerationSoftware,KiCad,Pcbnew,8.0.6*%
%TF.CreationDate,2024-12-04T23:44:22+08:00*%
%TF.ProjectId,f1oc,66316f63-2e6b-4696-9361-645f70636258,v0.1*%
%TF.SameCoordinates,Original*%
%TF.FileFunction,Legend,Bot*%
%TF.FilePolarity,Positive*%
%FSLAX46Y46*%
G04 Gerber Fmt 4.6, Leading zero omitted, Abs format (unit mm)*
G04 Created by KiCad (PCBNEW 8.0.6) date 2024-12-04 23:44:22*
%MOMM*%
%LPD*%
G01*
G04 APERTURE LIST*
G04 Aperture macros list*
%AMRoundRect*
0 Rectangle with rounded corners*
0 $1 Rounding radius*
0 $2 $3 $4 $5 $6 $7 $8 $9 X,Y pos of 4 corners*
0 Add a 4 corners polygon primitive as box body*
4,1,4,$2,$3,$4,$5,$6,$7,$8,$9,$2,$3,0*
0 Add four circle primitives for the rounded corners*
1,1,$1+$1,$2,$3*
1,1,$1+$1,$4,$5*
1,1,$1+$1,$6,$7*
1,1,$1+$1,$8,$9*
0 Add four rect primitives between the rounded corners*
20,1,$1+$1,$2,$3,$4,$5,0*
20,1,$1+$1,$4,$5,$6,$7,0*
20,1,$1+$1,$6,$7,$8,$9,0*
20,1,$1+$1,$8,$9,$2,$3,0*%
G04 Aperture macros list end*
%ADD10C,0.120000*%
%ADD11RoundRect,0.200000X-0.200000X-0.275000X0.200000X-0.275000X0.200000X0.275000X-0.200000X0.275000X0*%
%ADD12RoundRect,0.150000X-0.150000X-0.700000X0.150000X-0.700000X0.150000X0.700000X-0.150000X0.700000X0*%
%ADD13RoundRect,0.250000X-0.250000X-1.100000X0.250000X-1.100000X0.250000X1.100000X-0.250000X1.100000X0*%
%ADD14RoundRect,0.225000X-0.250000X0.225000X-0.250000X-0.225000X0.250000X-0.225000X0.250000X0.225000X0*%
%ADD15RoundRect,0.150000X0.700000X-0.150000X0.700000X0.150000X-0.700000X0.150000X-0.700000X-0.150000X0*%
%ADD16RoundRect,0.250000X1.100000X-0.250000X1.100000X0.250000X-1.100000X0.250000X-1.100000X-0.250000X0*%
%ADD17RoundRect,0.150000X0.725000X0.150000X-0.725000X0.150000X-0.725000X-0.150000X0.725000X-0.150000X0*%
%ADD18RoundRect,0.200000X0.200000X0.275000X-0.200000X0.275000X-0.200000X-0.275000X0.200000X-0.275000X0*%
%ADD19R,3.500000X2.350000*%
G04 APERTURE END LIST*
D10*
%TO.C,R15*%
X122749058Y-70339925D02*
X122274542Y-70339925D01*
X122749058Y-71384925D02*
X122274542Y-71384925D01*
%TO.C,J3*%
X116765000Y-64860000D02*
X116765000Y-63410000D01*
X118565000Y-64860000D02*
X116765000Y-64860000D01*
X118565000Y-65850000D02*
X118565000Y-64860000D01*
X123435000Y-64860000D02*
X125235000Y-64860000D01*
X123965000Y-60590000D02*
X118035000Y-60590000D01*
X125235000Y-64860000D02*
X125235000Y-63410000D01*
%TO.C,R9*%
X122749058Y-67044700D02*
X122274542Y-67044700D01*
X122749058Y-68089700D02*
X122274542Y-68089700D01*
%TO.C,C7*%
X125740000Y-75115580D02*
X125740000Y-74834420D01*
X126760000Y-75115580D02*
X126760000Y-74834420D01*
%TO.C,R14*%
X119638058Y-68692312D02*
X119163542Y-68692312D01*
X119638058Y-69737312D02*
X119163542Y-69737312D01*
%TO.C,R16*%
X119638058Y-70339925D02*
X119163542Y-70339925D01*
X119638058Y-71384925D02*
X119163542Y-71384925D01*
%TO.C,J1*%
X105340000Y-73035000D02*
X105340000Y-78965000D01*
X109610000Y-71765000D02*
X108160000Y-71765000D01*
X109610000Y-73565000D02*
X109610000Y-71765000D01*
X109610000Y-78435000D02*
X109610000Y-80235000D01*
X109610000Y-80235000D02*
X108160000Y-80235000D01*
X110600000Y-78435000D02*
X109610000Y-78435000D01*
%TO.C,R13*%
X122749058Y-68692312D02*
X122274542Y-68692312D01*
X122749058Y-69737312D02*
X122274542Y-69737312D01*
%TO.C,U4*%
X119050000Y-73440000D02*
X121000000Y-73440000D01*
X119050000Y-78560000D02*
X121000000Y-78560000D01*
X122950000Y-73440000D02*
X121000000Y-73440000D01*
X122950000Y-78560000D02*
X121000000Y-78560000D01*
X123700000Y-73535000D02*
X123460000Y-73205000D01*
X123940000Y-73205000D01*
X123700000Y-73535000D01*
G36*
X123700000Y-73535000D02*
G01*
X123460000Y-73205000D01*
X123940000Y-73205000D01*
X123700000Y-73535000D01*
G37*
%TO.C,R3*%
X112661142Y-76290300D02*
X113135658Y-76290300D01*
X112661142Y-77335300D02*
X113135658Y-77335300D01*
%TO.C,R11*%
X112661142Y-74817100D02*
X113135658Y-74817100D01*
X112661142Y-75862100D02*
X113135658Y-75862100D01*
%TO.C,R12*%
X119638058Y-67044700D02*
X119163542Y-67044700D01*
X119638058Y-68089700D02*
X119163542Y-68089700D01*
%TO.C,L1*%
X129040000Y-79285000D02*
X129040000Y-71465000D01*
X130590000Y-71465000D02*
X129040000Y-71465000D01*
X130590000Y-79285000D02*
X129040000Y-79285000D01*
X134610000Y-71465000D02*
X136160000Y-71465000D01*
X134610000Y-79285000D02*
X136160000Y-79285000D01*
X136160000Y-79285000D02*
X136160000Y-71465000D01*
%TD*%
%LPC*%
D11*
%TO.C,R15*%
X121686800Y-70862425D03*
X123336800Y-70862425D03*
%TD*%
D12*
%TO.C,J3*%
X119125000Y-65000000D03*
X120375000Y-65000000D03*
X121625000Y-65000000D03*
X122875000Y-65000000D03*
D13*
X117275000Y-61800000D03*
X124725000Y-61800000D03*
%TD*%
D11*
%TO.C,R9*%
X121686800Y-67567200D03*
X123336800Y-67567200D03*
%TD*%
D14*
%TO.C,C7*%
X126250000Y-74200000D03*
X126250000Y-75750000D03*
%TD*%
D11*
%TO.C,R14*%
X118575800Y-69214812D03*
X120225800Y-69214812D03*
%TD*%
%TO.C,R16*%
X118575800Y-70862425D03*
X120225800Y-70862425D03*
%TD*%
D15*
%TO.C,J1*%
X109750000Y-77875000D03*
X109750000Y-76625000D03*
X109750000Y-75375000D03*
X109750000Y-74125000D03*
D16*
X106550000Y-79725000D03*
X106550000Y-72275000D03*
%TD*%
D11*
%TO.C,R13*%
X121686800Y-69214812D03*
X123336800Y-69214812D03*
%TD*%
D17*
%TO.C,U4*%
X123575000Y-74095000D03*
X123575000Y-75365000D03*
X123575000Y-76635000D03*
X123575000Y-77905000D03*
X118425000Y-77905000D03*
X118425000Y-76635000D03*
X118425000Y-75365000D03*
X118425000Y-74095000D03*
%TD*%
D18*
%TO.C,R3*%
X113723400Y-76812800D03*
X112073400Y-76812800D03*
%TD*%
%TO.C,R11*%
X113723400Y-75339600D03*
X112073400Y-75339600D03*
%TD*%
D11*
%TO.C,R12*%
X118575800Y-67567200D03*
X120225800Y-67567200D03*
%TD*%
D19*
%TO.C,L1*%
X132600000Y-72350000D03*
X132600000Y-78400000D03*
%TD*%
%LPD*%
M02*
